<svg width="63" height="70" viewBox="0 0 63 70" fill="none" xmlns="http://www.w3.org/2000/svg">
<path fill-rule="evenodd" clip-rule="evenodd" d="M31.5031 70C43.232 70 53.521 61.2517 56.2718 49.0776C59.9944 49.0027 63.0001 45.5395 63.0001 41.2965C63.0001 37.0057 59.9254 33.5119 56.1428 33.5119H55.5548C51.9762 22.5127 42.3981 15.1776 31.5001 15.1776C20.6021 15.1776 11.024 22.5127 7.44531 33.5119H6.85436C3.07771 33.5119 0 37.0023 0 41.2965C0 45.5395 3.00572 48.9993 6.72837 49.0776C9.48212 61.2517 19.7712 70 31.5031 70ZM56.1428 35.6811C58.8695 35.6811 61.0893 38.2044 61.0893 41.2965C61.0893 44.3919 58.8695 46.9118 56.1428 46.9118H55.5158C55.0689 46.9118 54.6789 47.266 54.5829 47.7632C52.3181 59.3924 42.611 67.8342 31.5001 67.8342C20.3891 67.8342 10.679 59.3924 8.41422 47.7632C8.31823 47.266 7.92826 46.9118 7.48131 46.9118H6.85436C4.12762 46.9118 1.90782 44.3953 1.90782 41.2965C1.90782 38.201 4.12462 35.6811 6.85436 35.6811H8.11725C8.52821 35.6811 8.89117 35.3848 9.02316 34.9421C12.1459 24.4196 21.178 17.3468 31.4971 17.3468C41.8161 17.3468 50.8483 24.4196 53.971 34.9421C54.1 35.3848 54.4659 35.6811 54.8769 35.6811H56.1398H56.1428Z" fill="#339FD1"/>
<path d="M23.5057 45.0969C24.7797 45.0969 25.8125 43.9245 25.8125 42.4782C25.8125 41.032 24.7797 39.8595 23.5057 39.8595C22.2317 39.8595 21.199 41.032 21.199 42.4782C21.199 43.9245 22.2317 45.0969 23.5057 45.0969Z" fill="#339FD1"/>
<path d="M38.6215 45.0969C39.8955 45.0969 40.9283 43.9245 40.9283 42.4782C40.9283 41.032 39.8955 39.8595 38.6215 39.8595C37.3475 39.8595 36.3147 41.032 36.3147 42.4782C36.3147 43.9245 37.3475 45.0969 38.6215 45.0969Z" fill="#339FD1"/>
<path fill-rule="evenodd" clip-rule="evenodd" d="M31.5539 59.9304C33.8877 59.9304 37.9644 57.7101 40.0432 56.2561L40.4182 55.9939C40.8651 55.6772 41.0061 55.0131 40.7302 54.5023C40.4512 53.9915 39.8632 53.8383 39.4163 54.1482L39.0413 54.4104C35.0666 58.2482 29.5051 59.3141 25.6265 55.7419L23.6976 54.1277C23.2507 53.8178 22.6597 53.9711 22.3837 54.4819C22.1078 54.9927 22.2488 55.6601 22.6957 55.9734L23.0707 56.2356C25.1525 57.6897 29.2172 59.9304 31.5509 59.9304H31.5539Z" fill="#339FD1"/>
<path fill-rule="evenodd" clip-rule="evenodd" d="M29.4035 17.4864C34.0621 17.4864 37.8537 13.1855 37.8537 7.89357C37.8537 3.54155 34.737 0 30.9033 0C27.7326 0 25.1528 2.92859 25.1528 6.52803C25.1528 9.52813 27.3036 11.9698 29.9464 11.9698C32.1632 11.9698 33.9691 9.91974 33.9691 7.4032C33.9691 6.80386 33.5401 6.3203 33.0152 6.3203C32.4872 6.3203 32.0612 6.80726 32.0612 7.4032C32.0612 8.72787 31.1133 9.80396 29.9494 9.80396C28.3596 9.80396 27.0637 8.33626 27.0637 6.52803C27.0637 4.12386 28.7885 2.16579 30.9063 2.16579C33.6871 2.16579 35.9489 4.73342 35.9489 7.89016C35.9489 11.9834 33.0152 15.3138 29.4095 15.3138C28.8815 15.3138 28.4555 15.8008 28.4555 16.3967C28.4555 16.996 28.8845 17.4796 29.4095 17.4796L29.4035 17.4864Z" fill="#339FD1"/>
</svg>
