<svg width="15" height="15" viewBox="0 0 15 15" fill="none" xmlns="http://www.w3.org/2000/svg">
<g clip-path="url(#clip0)">
<path d="M6.98638 12.2306C7.04372 12.3139 7.12044 12.382 7.20994 12.429C7.29943 12.4761 7.39902 12.5006 7.50013 12.5006C7.60123 12.5006 7.70082 12.4761 7.79032 12.429C7.87982 12.382 7.95654 12.3139 8.01388 12.2306L13.6389 4.10563C13.704 4.01191 13.7422 3.90215 13.7493 3.78825C13.7564 3.67436 13.7321 3.5607 13.6792 3.45962C13.6262 3.35854 13.5466 3.27391 13.4489 3.21491C13.3512 3.15592 13.2392 3.12482 13.1251 3.125H1.87513C1.76128 3.12547 1.64971 3.15697 1.55243 3.2161C1.45514 3.27524 1.37582 3.35977 1.32298 3.46062C1.27015 3.56147 1.24581 3.67481 1.25257 3.78846C1.25934 3.90211 1.29695 4.01176 1.36138 4.10563L6.98638 12.2306Z" fill="#555555"/>
</g>
<defs>
<clipPath id="clip0">
<rect width="15" height="15" fill="white"/>
</clipPath>
</defs>
</svg>
