<svg width="75" height="75" viewBox="0 0 75 75" fill="none" xmlns="http://www.w3.org/2000/svg">
<g clip-path="url(#clip0)">
<path d="M1.62821e-05 5.00311V11.253C0.00688242 13.6853 1.76404 15.7601 4.16261 16.1675C1.49683 18.7474 -0.0057055 22.3001 1.62821e-05 26.0095V67.5004C0.00402154 71.6407 3.35927 74.996 7.49956 75H39.9981C44.1384 74.996 47.4937 71.6407 47.4977 67.5004V26.0095C47.5034 22.3001 46.0014 18.7474 43.3357 16.1675C45.7337 15.7601 47.4908 13.6853 47.4977 11.253V5.00311C47.4977 2.24178 45.2593 0.00341797 42.498 0.00341797H4.99971C2.23838 0.00341797 1.62821e-05 2.24178 1.62821e-05 5.00311ZM44.9978 61.2505H2.49986V30.0022H44.9978V61.2505ZM39.9981 72.5001H7.49956C4.73822 72.5001 2.49986 70.2618 2.49986 67.5004V63.7504H44.9978V67.5004C44.9978 70.2618 42.7595 72.5001 39.9981 72.5001ZM44.9978 26.0095V27.5023H2.49986V26.0095C2.49242 22.5902 4.04703 19.3551 6.72197 17.2254L7.93842 16.2527H39.5621L40.778 17.2254C43.4524 19.3556 45.0064 22.5907 44.9978 26.0095V26.0095ZM44.9978 5.00311V11.253C44.9978 12.6337 43.8787 13.7529 42.498 13.7529H4.99971C3.61904 13.7529 2.49986 12.6337 2.49986 11.253V5.00311C2.49986 3.62245 3.61904 2.50327 4.99971 2.50327H42.498C43.8787 2.50327 44.9978 3.62245 44.9978 5.00311Z" fill="#339ECF"/>
<path d="M4.99951 10.0029C4.99951 10.6935 5.5591 11.2531 6.24972 11.2531C6.93977 11.2531 7.49936 10.6935 7.49936 10.0029V6.25338C7.49936 5.56276 6.93977 5.00317 6.24972 5.00317C5.5591 5.00317 4.99951 5.56276 4.99951 6.25338V10.0029Z" fill="#339ECF"/>
<path d="M11.2497 11.2531C11.9398 11.2531 12.4994 10.6935 12.4994 10.0029V6.25338C12.4994 5.56276 11.9398 5.00317 11.2497 5.00317C10.5591 5.00317 9.99951 5.56276 9.99951 6.25338V10.0029C9.99951 10.6935 10.5591 11.2531 11.2497 11.2531Z" fill="#339ECF"/>
<path d="M16.2492 11.2531C16.9393 11.2531 17.4989 10.6935 17.4989 10.0029V6.25338C17.4989 5.56276 16.9393 5.00317 16.2492 5.00317C15.5586 5.00317 14.999 5.56276 14.999 6.25338V10.0029C14.999 10.6935 15.5586 11.2531 16.2492 11.2531Z" fill="#339ECF"/>
<path d="M26.2487 11.2531C26.9393 11.2531 27.4989 10.6935 27.4989 10.0029V6.25338C27.4989 5.56276 26.9393 5.00317 26.2487 5.00317C25.5586 5.00317 24.999 5.56276 24.999 6.25338V10.0029C24.999 10.6935 25.5586 11.2531 26.2487 11.2531Z" fill="#339ECF"/>
<path d="M21.2491 11.2531C21.9398 11.2531 22.4994 10.6935 22.4994 10.0029V6.25338C22.4994 5.56276 21.9398 5.00317 21.2491 5.00317C20.5591 5.00317 19.9995 5.56276 19.9995 6.25338V10.0029C19.9995 10.6935 20.5591 11.2531 21.2491 11.2531Z" fill="#339ECF"/>
<path d="M31.2482 11.2531C31.9388 11.2531 32.4984 10.6935 32.4984 10.0029V6.25338C32.4984 5.56276 31.9388 5.00317 31.2482 5.00317C30.5581 5.00317 29.9985 5.56276 29.9985 6.25338V10.0029C29.9985 10.6935 30.5581 11.2531 31.2482 11.2531Z" fill="#339ECF"/>
<path d="M36.2482 11.2531C36.9388 11.2531 37.4984 10.6935 37.4984 10.0029V6.25338C37.4984 5.56276 36.9388 5.00317 36.2482 5.00317C35.5581 5.00317 34.9985 5.56276 34.9985 6.25338V10.0029C34.9985 10.6935 35.5581 11.2531 36.2482 11.2531Z" fill="#339ECF"/>
<path d="M41.2483 11.2531C41.9383 11.2531 42.4979 10.6935 42.4979 10.0029V6.25338C42.4979 5.56276 41.9383 5.00317 41.2483 5.00317C40.5576 5.00317 39.998 5.56276 39.998 6.25338V10.0029C39.998 10.6935 40.5576 11.2531 41.2483 11.2531V11.2531Z" fill="#339ECF"/>
<path d="M21.5002 47.7503H22.7498V48.9999C22.7498 49.6905 23.3094 50.2501 24.0001 50.2501C24.6901 50.2501 25.2497 49.6905 25.2497 48.9999V47.7503H26.4999C27.1905 47.7503 27.7501 47.1901 27.7501 46.5001C27.7501 45.81 27.1905 45.2498 26.4999 45.2498H25.2497V44.0002C25.2497 43.3096 24.6901 42.75 24.0001 42.75C23.3094 42.75 22.7498 43.3096 22.7498 44.0002V45.2498H21.5002C20.8096 45.2498 20.25 45.81 20.25 46.5001C20.25 47.1901 20.8096 47.7503 21.5002 47.7503Z" fill="#339ECF"/>
<path d="M8.74957 66.2502H6.24972C5.5591 66.2502 4.99951 66.8098 4.99951 67.5005C4.99951 68.1905 5.5591 68.7501 6.24972 68.7501H8.74957C9.43962 68.7501 9.99921 68.1905 9.99921 67.5005C9.99921 66.8098 9.43962 66.2502 8.74957 66.2502V66.2502Z" fill="#339ECF"/>
<path d="M26.2485 66.2502H13.7492C13.0586 66.2502 12.499 66.8098 12.499 67.5005C12.499 68.1905 13.0586 68.7501 13.7492 68.7501H26.2485C26.9391 68.7501 27.4987 68.1905 27.4987 67.5005C27.4987 66.8098 26.9391 66.2502 26.2485 66.2502V66.2502Z" fill="#339ECF"/>
<path d="M9.02421 18.8836C8.85943 18.9665 4.99951 20.9434 4.99951 25.0024C4.99951 25.6925 5.5591 26.2521 6.24972 26.2521C6.93977 26.2521 7.49936 25.6925 7.49936 25.0024C7.49936 22.5186 10.0879 21.1488 10.1468 21.1185C10.7642 20.8078 11.0125 20.0559 10.7018 19.4386C10.3911 18.8218 9.63931 18.5729 9.02193 18.8836H9.02421Z" fill="#339ECF"/>
<path d="M74.9965 56.3636C75.0268 54.7054 74.3968 53.1039 73.2456 51.9103C72.0944 50.7173 70.5158 50.0302 68.8582 50.001C67.2006 49.9758 65.6002 50.6046 64.4032 51.7513L59.9036 56.0884L55.4034 60.4209C54.6641 61.1298 54.1166 62.015 53.811 62.9929C51.0714 64.1504 49.5265 67.0782 50.1182 69.9929C50.7092 72.9081 53.2732 75.0023 56.2473 75H68.7466C71.7826 75.0086 74.3837 72.8292 74.9061 69.839C75.429 66.8482 73.7217 63.9163 70.8631 62.8944L73.0888 60.7505C74.2876 59.6033 74.9747 58.0223 74.9965 56.3636V56.3636ZM60.7395 58.7507L64.3534 62.5008H56.8922C56.9711 62.4047 57.0541 62.3131 57.1422 62.2256L60.7395 58.7507ZM52.4973 68.7501C52.4973 66.6794 54.1766 65.0006 56.2473 65.0006H61.247V72.5002H56.2473C54.1766 72.5002 52.4973 70.8214 52.4973 68.7501V68.7501ZM72.4966 68.7501C72.4966 70.8214 70.8179 72.5002 68.7466 72.5002H63.7469V65.0006H68.7466C70.8179 65.0006 72.4966 66.6794 72.4966 68.7501ZM71.3551 58.951L67.747 62.4207L66.4642 61.0881L62.5396 57.0193L66.138 53.5525C66.8555 52.8601 67.8191 52.4814 68.8158 52.5008C70.3332 52.526 71.6864 53.4638 72.2426 54.8765C72.7987 56.2886 72.4486 57.8976 71.3551 58.951V58.951Z" fill="#339ECF"/>
</g>
<defs>
<clipPath id="clip0">
<rect width="75" height="75" fill="white"/>
</clipPath>
</defs>
</svg>
