<svg width="70" height="70" viewBox="0 0 70 70" fill="none" xmlns="http://www.w3.org/2000/svg">
<g clip-path="url(#clip0)">
<path d="M45.0796 70C44.8695 70 44.6572 69.9744 44.4449 69.923C43.5372 69.6989 42.8164 69.0015 42.5654 68.1043C40.2089 59.709 34.6125 45.4994 28.5831 45.4994C22.5537 45.4994 16.9575 59.709 14.602 68.1043C14.3501 69.0015 13.6303 69.6979 12.7225 69.923C11.8103 70.1459 10.8804 69.8775 10.2376 69.1985C4.78456 63.4459 5.2291 51.7757 5.25124 51.2813C5.25001 47.3461 6.3445 42.6644 7.2626 39.4387C7.97184 36.9457 7.50418 34.2728 5.97918 32.1074C5.74818 31.7795 5.52652 31.4518 5.31422 31.1239C2.21944 26.3568 0.583984 20.6531 0.583984 14.6308V11.6664C0.583984 2.43818 10.505 0 15.7504 0C22.3967 0 26.8382 2.90141 28.5833 4.29086C30.3288 2.90141 34.7702 0 41.4163 0C46.6615 0 56.5827 2.43818 56.5827 11.6664V14.6308C56.5827 20.6531 54.947 26.3568 51.852 31.1237C51.6397 31.4516 51.418 31.7793 51.187 32.1072C49.661 34.2726 49.1931 36.9452 49.9036 39.4385C50.8217 42.6641 51.9159 47.3459 51.9159 51.3324C51.9368 51.7758 52.3814 63.4456 46.9296 69.1985C46.4366 69.7198 45.7739 70 45.0796 70ZM28.5833 43.166C37.3109 43.166 43.2107 61.7715 44.8115 67.4742C44.8464 67.6002 44.948 67.6435 45.0039 67.6575C45.0971 67.6809 45.1741 67.6587 45.2349 67.5945C50.0145 62.5524 49.5877 51.496 49.583 51.3841C49.5818 47.617 48.5353 43.1615 47.658 40.0781C46.7549 36.9036 47.3454 33.5087 49.2785 30.7647C49.492 30.4614 49.6972 30.1581 49.8933 29.856C52.7432 25.466 54.2496 20.2019 54.2496 14.6313V11.6669C54.2496 2.46549 41.9403 2.33486 41.4153 2.33363C33.8705 2.33363 29.4503 6.61761 29.406 6.66066C28.9499 7.11208 28.2126 7.11208 27.7587 6.65844C27.7167 6.61761 23.2964 2.33363 15.7504 2.33363C15.2276 2.33486 2.91737 2.46549 2.91737 11.6669V14.6313C2.91737 20.2021 4.42342 25.466 7.27121 29.8538C7.46949 30.1583 7.67368 30.4616 7.88721 30.765C9.82034 33.5102 10.4108 36.9039 9.50766 40.0783C8.6304 43.1618 7.58388 47.616 7.58388 51.3329C7.57798 51.4951 7.16149 62.562 11.9308 67.5936C11.9926 67.659 12.0708 67.6787 12.1631 67.6578C12.2201 67.6437 12.3205 67.6017 12.3554 67.4745C13.956 61.7715 19.8557 43.166 28.5833 43.166Z" fill="#34A2D5"/>
<path d="M18.0836 13.9998C17.4395 13.9998 16.917 13.477 16.917 12.8332C16.917 12.1892 17.4398 11.6667 18.0836 11.6667C21.4563 11.6667 26.159 6.916 27.6874 5.08571C28.1005 4.59099 28.8353 4.52456 29.33 4.93761C29.8248 5.35066 29.8912 6.0845 29.4794 6.5802C28.8471 7.33938 23.1503 13.9998 18.0836 13.9998Z" fill="#34A2D5"/>
<path d="M33.2498 38.9824L28.1001 33.8327L33.2498 28.683L38.3994 33.8327L33.2498 38.9824ZM31.3995 33.8327L33.2498 35.6829L35.1 33.8327L33.2498 31.9825L31.3995 33.8327Z" fill="#34A2D5"/>
<path d="M33.2498 31.4994C32.6058 31.4994 32.0833 30.9766 32.0833 30.3328V27.9994C32.0833 27.3553 32.606 26.8328 33.2498 26.8328C33.8939 26.8328 34.4164 27.3556 34.4164 27.9994V30.3328C34.4166 30.9768 33.8939 31.4994 33.2498 31.4994Z" fill="#34A2D5"/>
<path d="M39.0832 34.9993H36.7498C36.1058 34.9993 35.5833 34.4765 35.5833 33.8327C35.5833 33.1887 36.106 32.6661 36.7498 32.6661H39.0832C39.7273 32.6661 40.2498 33.1889 40.2498 33.8327C40.2498 34.4768 39.7273 34.9993 39.0832 34.9993Z" fill="#34A2D5"/>
<path d="M33.2498 40.8326C32.6058 40.8326 32.0833 40.3098 32.0833 39.666V37.3326C32.0833 36.6886 32.606 36.1661 33.2498 36.1661C33.8939 36.1661 34.4164 36.6888 34.4164 37.3326V39.666C34.4166 40.3098 33.8939 40.8326 33.2498 40.8326Z" fill="#34A2D5"/>
<path d="M29.7499 34.9993H27.4166C26.7725 34.9993 26.25 34.4765 26.25 33.8327C26.25 33.1887 26.7728 32.6661 27.4166 32.6661H29.7499C30.394 32.6661 30.9165 33.1889 30.9165 33.8327C30.9168 34.4768 30.394 34.9993 29.7499 34.9993Z" fill="#34A2D5"/>
<path d="M62.416 50.6488L57.2664 45.4991L62.416 40.3494L67.5657 45.4991L62.416 50.6488ZM60.5658 45.4991L62.416 47.3493L64.2663 45.4991L62.416 43.6489L60.5658 45.4991Z" fill="#34A2D5"/>
<path d="M62.4161 43.166C61.772 43.166 61.2495 42.6432 61.2495 41.9994V39.666C61.2495 39.022 61.7723 38.4995 62.4161 38.4995C63.0599 38.4995 63.5826 39.0222 63.5826 39.666V41.9994C63.5826 42.6432 63.0601 43.166 62.4161 43.166Z" fill="#34A2D5"/>
<path d="M68.2495 46.6659H65.9161C65.272 46.6659 64.7495 46.1431 64.7495 45.4993C64.7495 44.8553 65.2723 44.3328 65.9161 44.3328H68.2495C68.8935 44.3328 69.416 44.8555 69.416 45.4993C69.416 46.1431 68.8933 46.6659 68.2495 46.6659Z" fill="#34A2D5"/>
<path d="M62.4161 52.499C61.772 52.499 61.2495 51.9763 61.2495 51.3325V48.9991C61.2495 48.355 61.7723 47.8325 62.4161 47.8325C63.0599 47.8325 63.5826 48.3553 63.5826 48.9991V51.3325C63.5826 51.9765 63.0601 52.499 62.4161 52.499Z" fill="#34A2D5"/>
<path d="M58.9162 46.6659H56.5828C55.9388 46.6659 55.4163 46.1431 55.4163 45.4993C55.4163 44.8553 55.939 44.3328 56.5828 44.3328H58.9162C59.5603 44.3328 60.0828 44.8555 60.0828 45.4993C60.0828 46.1431 59.5603 46.6659 58.9162 46.6659Z" fill="#34A2D5"/>
<path d="M42.5833 27.9996C41.9392 27.9996 41.4167 27.4768 41.4167 26.833C41.4167 21.687 38.2762 17.4997 34.4168 17.4997C33.7728 17.4997 33.2502 16.977 33.2502 16.3332C33.2502 15.6891 33.773 15.1666 34.4168 15.1666C38.2762 15.1666 41.4167 10.9795 41.4167 5.83356C41.4167 5.18951 41.9395 4.66699 42.5833 4.66699C43.2271 4.66699 43.7499 5.18976 43.7499 5.83356C43.7499 10.9795 46.8904 15.1666 50.7498 15.1666C51.3938 15.1666 51.9163 15.6894 51.9163 16.3332C51.9163 16.9772 51.3936 17.4997 50.7498 17.4997C46.8904 17.4997 43.7499 21.6868 43.7499 26.833C43.7499 27.4768 43.2273 27.9996 42.5833 27.9996ZM38.4836 16.3329C40.216 17.3853 41.6521 19.0897 42.583 21.1886C43.5152 19.0899 44.9501 17.3853 46.6825 16.3329C44.9501 15.2805 43.5139 13.5762 42.583 11.4772C41.6512 13.5762 40.2162 15.2807 38.4836 16.3329Z" fill="#34A2D5"/>
</g>
<defs>
<clipPath id="clip0">
<rect width="70" height="70" fill="white"/>
</clipPath>
</defs>
</svg>
