<svg width="70" height="70" viewBox="0 0 70 70" fill="none" xmlns="http://www.w3.org/2000/svg">
<g clip-path="url(#clip0)">
<path d="M20.4955 55.0668C19.0103 55.0668 17.6128 54.4882 16.5628 53.4382C15.5116 52.3882 14.9342 50.9906 14.9342 49.5054C14.9342 48.0203 15.5128 46.6227 16.5628 45.5727L45.5705 16.5645C46.6205 15.5132 48.0181 14.9359 49.5033 14.9359C50.9885 14.9359 52.386 15.5145 53.436 16.5645C54.4872 17.6144 55.0646 19.012 55.0646 20.4972C55.0646 21.9824 54.486 23.38 53.436 24.4299L24.4283 53.438C23.3783 54.4892 21.9807 55.0668 20.4955 55.0668ZM49.5035 17.2678C48.6413 17.2678 47.8306 17.6039 47.2203 18.214L18.2123 47.222C17.6022 47.8321 17.2661 48.6429 17.2661 49.5052C17.2661 50.3675 17.6022 51.1781 18.2123 51.7884C19.4325 53.0077 21.5583 53.0087 22.7785 51.7884L51.7865 22.7804C52.3966 22.1703 52.7327 21.3595 52.7327 20.4972C52.7327 19.6349 52.3966 18.8243 51.7865 18.214C51.1764 17.6039 50.3656 17.2678 49.5035 17.2678Z" fill="#35A3D6"/>
<path d="M45.3594 32.0226C45.0608 32.0226 44.7621 31.9082 44.5346 31.6809L38.3186 25.4649C37.8625 25.0088 37.8625 24.2715 38.3186 23.8152L42.4627 19.6711C42.9188 19.215 43.6561 19.215 44.1124 19.6711L50.3284 25.8871C50.7845 26.3432 50.7845 27.0805 50.3284 27.5368L46.1843 31.6809C45.9568 31.9094 45.6581 32.0226 45.3594 32.0226ZM40.7932 24.64L45.3594 29.2063L47.8538 26.712L43.2875 22.1457L40.7932 24.64Z" fill="#35A3D6"/>
<path d="M26.7115 50.6718C26.4128 50.6718 26.1141 50.5574 25.8866 50.3301L19.6706 44.1141C19.2145 43.658 19.2145 42.9207 19.6706 42.4644L23.8147 38.3203C24.2708 37.8642 25.0081 37.8642 25.4644 38.3203L31.6804 44.5363C32.1365 44.9924 32.1365 45.7297 31.6804 46.186L27.5363 50.3301C27.3088 50.5574 27.0101 50.6718 26.7115 50.6718ZM22.145 43.288L26.7112 47.8542L29.2055 45.3599L24.6393 40.7937L22.145 43.288Z" fill="#35A3D6"/>
<path d="M52.6126 18.5559C52.3139 18.5559 52.0153 18.4415 51.7877 18.2142C51.3316 17.7581 51.3316 17.0208 51.7877 16.5645L58.0037 10.3485C58.4598 9.89238 59.1971 9.89238 59.6535 10.3485C60.1096 10.8046 60.1096 11.5419 59.6535 11.9982L53.4375 18.2142C53.2099 18.4428 52.9113 18.5559 52.6126 18.5559Z" fill="#35A3D6"/>
<path d="M62.9727 14.0515C61.1736 14.0515 59.3735 13.3666 58.004 11.997C57.5479 11.5419 57.5479 10.8036 58.004 10.3473C58.4601 9.89116 59.1974 9.89116 59.6537 10.3473C61.4831 12.1766 64.4628 12.1766 66.2921 10.3473C68.1215 8.51669 68.1215 5.53822 66.2921 3.70888C64.4628 1.87953 61.4843 1.87953 59.6537 3.70888C59.1976 4.16499 58.4603 4.16499 58.004 3.70888C57.5479 3.25277 57.5479 2.51425 58.004 2.05912C60.7446 -0.681451 65.2023 -0.681451 67.9429 2.05912C70.6822 4.7997 70.6822 9.25743 67.9429 11.998C66.5706 13.3666 64.7715 14.0515 62.9727 14.0515Z" fill="#35A3D6"/>
<path d="M11.1702 59.9947C10.8715 59.9947 10.5728 59.8803 10.3453 59.653C9.88918 59.1969 9.88918 58.4596 10.3453 58.0032L16.5613 51.7872C17.0174 51.3311 17.7547 51.3311 18.211 51.7872C18.6671 52.2433 18.6671 52.9806 18.211 53.437L11.995 59.653C11.7665 59.8803 11.4688 59.9947 11.1702 59.9947Z" fill="#35A3D6"/>
<path d="M7.02636 69.9978C5.22727 69.9978 3.4272 69.3129 2.05741 67.9433C-0.681937 65.2027 -0.681937 60.745 2.05741 58.0044C4.79798 55.2651 9.25572 55.2639 11.9963 58.0044C12.4524 58.4596 12.4524 59.1978 11.9963 59.6542C11.5402 60.1105 10.8029 60.1103 10.3465 59.6542C8.51719 57.8248 5.53749 57.8248 3.70815 59.6542C1.8788 61.4848 1.8788 64.4632 3.70815 66.2926C5.53749 68.1219 8.51596 68.1219 10.3465 66.2926C10.8026 65.8365 11.5399 65.8365 11.9963 66.2926C12.4526 66.7487 12.4524 67.4872 11.9963 67.9423C10.6255 69.3129 8.82643 69.9978 7.02636 69.9978Z" fill="#35A3D6"/>
<path d="M57.4263 65.2224C57.1161 65.2224 56.8196 65.0999 56.6002 64.8807L52.959 61.2348C52.5039 60.78 52.5039 60.0414 52.959 59.5863L58.4214 54.117C58.6409 53.8975 58.9371 53.7753 59.2475 53.7753C59.5578 53.7753 59.8542 53.8978 60.0736 54.117L63.7149 57.7629C64.1697 58.218 64.1697 58.9563 63.7149 59.4114L58.2524 64.8807C58.033 65.0999 57.7353 65.2224 57.4263 65.2224ZM55.4336 60.41L57.4263 62.4049L61.2402 58.5875L59.2475 56.5926L55.4336 60.41Z" fill="#35A3D6"/>
<path d="M63.7985 70C62.4546 70 61.1911 69.4763 60.2415 68.5254L33.9797 42.2346C33.5246 41.7785 33.5246 41.0412 33.9797 40.5849L39.4456 35.119C39.665 34.8995 39.9612 34.7773 40.2704 34.7773C40.5797 34.7773 40.8771 34.8998 41.0953 35.119L67.3546 61.4076C69.3159 63.37 69.3159 66.562 67.3546 68.5242C66.406 69.4775 65.1425 70 63.7985 70ZM36.4555 41.411L61.8934 66.8769C62.9119 67.8966 64.6876 67.8954 65.7061 66.8769C66.7586 65.8235 66.7586 64.1107 65.7061 63.0583L40.2704 37.5958L36.4555 41.411Z" fill="#35A3D6"/>
<path d="M29.5045 35.4456C29.1943 35.4456 28.8978 35.3231 28.6784 35.1039L24.0748 30.4966L19.8702 29.6543C19.6438 29.6088 19.4362 29.4981 19.2741 29.3347L3.79697 13.8401C-1.2908 8.74768 2.50442 0.974189 2.66876 0.646501C2.83679 0.310448 3.15537 0.0759991 3.52513 0.0152341C3.8939 -0.0455309 4.273 0.0769831 4.53771 0.343168L33.975 29.8107C34.4301 30.2659 34.4301 31.0041 33.975 31.4605L30.3303 35.1052C30.1112 35.3221 29.8147 35.4456 29.5045 35.4456ZM20.6751 27.4365L24.8797 28.2788C25.106 28.3243 25.3137 28.435 25.4758 28.5974L29.5042 32.6293L31.4982 30.6354L4.1527 3.25866C3.45501 5.4521 2.72583 9.46652 5.44771 12.1918L20.6751 27.4365Z" fill="#35A3D6"/>
</g>
<defs>
<clipPath id="clip0">
<rect width="70" height="70" fill="white"/>
</clipPath>
</defs>
</svg>
