<svg width="75" height="75" viewBox="0 0 75 75" fill="none" xmlns="http://www.w3.org/2000/svg">
<g clip-path="url(#clip0)">
<path d="M26.2172 44.4575C25.5397 44.5931 24.9916 45.0903 24.7908 45.7512L24.4669 46.8097C18.7336 48.8198 11.6666 51.6481 9.19419 54.1205C6.018 57.2955 4.55894 66.8355 3.97188 72.2375C3.89749 72.9413 4.12465 73.6439 4.59784 74.1704C5.07104 74.6973 5.74507 74.9983 6.45286 75H68.7007C69.4096 75 70.0853 74.6991 70.5597 74.1715C71.034 73.6439 71.2618 72.9402 71.1868 72.2352C70.5992 66.8315 69.1407 57.2921 65.9645 54.1171C63.4921 51.6447 56.4245 48.8158 50.6912 46.8063L50.3673 45.7483C50.0984 44.8156 49.1474 44.2555 48.2011 44.4723C48.0838 44.1061 47.975 43.7577 47.8835 43.4521C49.5074 41.9273 50.6815 39.9859 51.2788 37.8402C51.6313 36.4955 51.8316 35.1149 51.875 33.725C53.6711 33.5969 55.1193 32.2042 55.3173 30.4144L55.9999 24.1993C56.0188 24.0511 56.0279 23.9012 56.0262 23.7519C56.0251 22.9211 55.7464 22.1149 55.2349 21.4608C56.1996 18.2561 57.9619 10.8486 52.2098 5.09641C47.7015 0.584176 41.1518 -0.024627 37.6105 0.00283782H37.5928C34.0332 -0.0486586 27.468 0.561289 22.9432 5.09527C17.1939 10.8451 18.9533 18.252 19.9175 21.458C19.4059 22.1137 19.1279 22.9205 19.1273 23.7519C19.125 23.8898 19.1319 24.0277 19.1473 24.1644L19.8351 30.4144C20.0325 32.2042 21.4807 33.598 23.2773 33.7267C23.3208 35.1171 23.5211 36.4984 23.8747 37.8436C24.4715 39.9887 25.645 41.929 27.2672 43.4539C27.1768 43.76 27.068 44.1084 26.9496 44.4735C26.7087 44.4186 26.4598 44.4134 26.2172 44.4575V44.4575ZM37.5768 47.5009C40.4691 47.4059 43.2906 46.582 45.7801 45.1063C45.8986 45.4811 46.0302 45.865 46.1715 46.2598L44.2965 48.5411C40.0309 50.4877 35.1313 50.4877 30.8656 48.5411L28.9906 46.2587C29.1319 45.865 29.2629 45.4759 29.382 45.1063C31.8687 46.5814 34.6872 47.4048 37.5768 47.5009V47.5009ZM29.1107 50.3469L29.1468 50.3921L33.8267 56.0745V63.4854L26.8094 47.696L26.8409 47.5907L29.1107 50.3469ZM39.2567 54.6572C38.9792 54.9925 38.827 55.4142 38.8264 55.8496V72.5002H36.3265V55.8496C36.326 55.4148 36.1749 54.9936 35.898 54.6583L33.8078 52.1259C36.2945 52.634 38.8585 52.634 41.3452 52.1259L39.2567 54.6572ZM41.3263 56.0745L46.0062 50.3921L46.0428 50.3469L48.3126 47.597L48.3435 47.7023L41.3263 63.4854V56.0745ZM21.3273 61.2505C22.708 61.2505 23.8272 62.3697 23.8272 63.7503C23.8272 65.131 22.708 66.2502 21.3273 66.2502C19.9467 66.2502 18.8275 65.131 18.8275 63.7503C18.8275 62.3697 19.9467 61.2505 21.3273 61.2505V61.2505ZM6.45286 72.5002C7.16637 65.9303 8.725 58.1132 10.9525 55.8759C12.4059 54.6675 14.0314 53.6828 15.7749 52.9544C15.6616 55.5292 16.3568 58.0743 17.7626 60.2343C16.0873 61.9274 15.8395 64.5674 17.1699 66.5432C18.5002 68.5183 21.0395 69.2816 23.2384 68.3661C25.4373 67.4512 26.6853 65.1121 26.2206 62.7759C25.7566 60.4397 23.7088 58.7557 21.3273 58.7506C20.8513 58.7575 20.3787 58.833 19.9249 58.9755C18.5139 56.8618 17.9801 54.2824 18.4361 51.782C20.2923 51.0009 22.4362 50.1799 24.8033 49.3382L32.7395 67.1926C32.9478 67.6623 33.3415 68.0245 33.8267 68.1928V72.5002H6.45286ZM68.7007 72.5002H41.3263V68.1876C41.8121 68.0194 42.2063 67.6572 42.4151 67.188L50.3502 49.3382C51.371 49.6998 52.35 50.0586 53.2809 50.411C53.7741 51.9302 54.1209 53.4928 54.3171 55.0783C52.5771 55.4405 51.3292 56.9728 51.3263 58.7506C51.3303 59.075 51.3772 59.3972 51.4659 59.7096C47.0761 62.3754 44.9053 64.8752 45.0849 67.148C45.2211 68.8588 46.5852 70.2126 49.136 71.1704C49.5588 71.3466 50.0435 71.2774 50.4005 70.9907C50.7576 70.7041 50.9287 70.2452 50.848 69.7949C50.7667 69.3446 50.4457 68.9744 50.0114 68.8302C48.49 68.2591 47.6249 67.5914 47.5739 66.9551C47.5013 66.0488 48.8676 64.1766 52.8661 61.7729C53.5058 62.2455 54.2805 62.5007 55.0758 62.5007H56.3261C57.1208 62.4984 57.8938 62.2415 58.5324 61.7677C62.532 64.1715 63.8972 66.0442 63.8245 66.9506C63.773 67.5914 62.9085 68.2591 61.387 68.825C60.9527 68.9692 60.6317 69.3394 60.5505 69.7897C60.4692 70.2406 60.6409 70.6995 60.9979 70.9862C61.3544 71.2728 61.8396 71.3415 62.2619 71.1653C64.8144 70.2074 66.1768 68.8542 66.3129 67.1428C66.4932 64.8718 64.3269 62.3702 59.932 59.7044C60.0218 59.3943 60.0699 59.0733 60.0756 58.7506C60.0676 56.879 58.6806 55.3003 56.8261 55.0509C56.706 53.8767 56.4994 52.7135 56.2082 51.5697C60.2507 53.2422 63.0555 54.7459 64.1941 55.8845C66.4228 58.1166 67.982 65.9338 68.7007 72.5002V72.5002ZM56.3261 60.0008H55.0758C54.3858 60.0008 53.8262 59.4406 53.8262 58.7506C53.8262 58.06 54.3858 57.5004 55.0758 57.5004H56.3261C57.0161 57.5004 57.5757 58.06 57.5757 58.7506C57.5757 59.4406 57.0161 60.0008 56.3261 60.0008ZM41.883 32.4553L41.2427 30.8006C40.9938 30.1569 40.27 29.8365 39.6263 30.0854C39.0833 30.3005 38.7663 30.8675 38.8665 31.4426C38.0219 31.2183 37.1327 31.2183 36.2882 31.4426C36.3866 30.8681 36.0691 30.3022 35.5266 30.0877C34.8829 29.8393 34.1597 30.1592 33.9108 30.8029L33.2717 32.4553C31.3268 32.9057 29.2824 32.5446 27.6093 31.4552C26.8695 30.9465 26.267 30.4779 25.8133 30.1002C25.8459 29.5618 25.8922 28.9931 25.9483 28.394C26.6721 27.554 27.3278 26.658 27.9097 25.7145C27.916 25.7219 27.9183 25.7316 27.9246 25.7391C28.4018 26.2369 29.1926 26.254 29.6909 25.7768C31.6346 23.9155 32.9667 24.748 33.1269 24.8608C33.6745 25.2819 34.4601 25.1789 34.8812 24.6313C35.3023 24.0837 35.1993 23.2981 34.6518 22.877C33.0199 21.7807 30.8794 21.8093 29.2772 22.948C29.6108 22.0748 29.846 21.1667 29.9782 20.241C36.0502 21.0723 42.2298 19.9829 47.6512 17.126C47.6912 17.8458 47.7525 18.7281 47.8463 19.7369C47.8549 19.7947 47.8669 19.8519 47.8824 19.9085C47.8824 19.9297 47.8824 19.952 47.8926 19.9743C48.3212 22.0994 48.6228 23.8142 48.8425 25.3929C49.0925 27.0705 49.2527 28.6429 49.3426 30.1014C48.8888 30.4767 48.2886 30.9454 47.5511 31.4517C45.8774 32.5446 43.8301 32.9074 41.883 32.4553ZM52.8335 30.1414C52.7728 30.657 52.3952 31.0787 51.8899 31.1954C51.8201 29.163 51.6319 27.1369 51.3263 25.1268V23.4646C51.3263 22.9331 51.7572 22.5022 52.2887 22.5022C52.5611 22.5011 52.8254 22.5932 53.0383 22.7631C53.341 23.0029 53.5201 23.3662 53.5258 23.7519L52.8335 30.1414ZM24.7107 6.86389C27.5481 4.02757 32.2766 2.44148 37.5768 2.50271H37.6157C42.9152 2.44148 47.6151 4.02872 50.4423 6.86102C54.5672 10.9859 54.0797 16.147 53.0211 20.0796C52.7802 20.0292 52.5348 20.0029 52.2887 20.0018C51.6719 20.0046 51.0671 20.174 50.5384 20.4921C50.4686 20.1357 50.4011 19.7832 50.3239 19.4033C50.0761 16.7524 50.0761 15.0198 50.0761 15.002C50.0767 14.5409 49.8226 14.1163 49.4158 13.8989C49.0084 13.6814 48.5146 13.7055 48.1313 13.9624C47.935 14.0934 47.7261 14.2124 47.5064 14.3372C41.9591 17.5608 35.4425 18.6966 29.1319 17.5397C28.7583 17.4458 28.3623 17.5294 28.0585 17.7663C27.7547 18.0031 27.5767 18.3671 27.5773 18.7521C27.5412 20.3954 27.1127 22.0056 26.3271 23.4492C26.3173 21.5438 24.7707 20.0035 22.8648 20.0018C22.6188 20.0041 22.3733 20.031 22.1324 20.0819C21.0773 16.1498 20.5772 10.9939 24.7107 6.86389V6.86389ZM22.3195 30.1403L21.6323 23.8909C21.6323 23.8795 21.6323 23.7656 21.6323 23.7519C21.6363 23.3691 21.8114 23.008 22.1095 22.7683C22.3235 22.5955 22.5901 22.5017 22.8648 22.5022C23.3963 22.5022 23.8272 22.9331 23.8272 23.4646V25.1268C23.6939 26.0074 23.5835 26.8829 23.4959 27.752C23.3712 29.0177 23.2911 30.1517 23.2585 31.1977C22.7544 31.0781 22.379 30.6553 22.3195 30.1403ZM26.2807 37.1627C25.9523 35.8667 25.7783 34.5358 25.7623 33.1992C25.9059 33.3016 26.041 33.4017 26.196 33.5076C28.629 35.1034 31.6398 35.5503 34.432 34.7303C34.5047 34.7172 34.5762 34.6977 34.6455 34.6726C35.288 34.4952 35.9151 34.2663 36.5205 33.9877C37.1934 33.6678 37.975 33.6712 38.6456 33.9962C39.2533 34.2755 39.8827 34.5049 40.5275 34.6829C40.5721 34.6983 40.6179 34.7115 40.6643 34.7218C41.6095 34.985 42.5862 35.1229 43.5675 35.1314C45.4878 35.1486 47.3674 34.5822 48.9575 33.5064C49.1114 33.4017 49.2476 33.3016 49.3912 33.1992C49.374 34.5352 49.2001 35.8644 48.8722 37.1604C48.347 39.103 47.2301 40.8344 45.6766 42.1138C43.3358 43.8836 40.5086 44.8912 37.5768 45.001C34.6415 44.8986 31.8097 43.8893 29.4718 42.1109C27.9206 40.8327 26.8054 39.103 26.2807 37.1627V37.1627Z" fill="#339ECF"/>
<path d="M33.8266 27.502C33.8266 28.1921 33.267 28.7517 32.5769 28.7517C31.8863 28.7517 31.3267 28.1921 31.3267 27.502C31.3267 26.8113 31.8863 26.2517 32.5769 26.2517C33.267 26.2517 33.8266 26.8113 33.8266 27.502Z" fill="#339ECF"/>
<path d="M43.8261 27.502C43.8261 28.1921 43.2665 28.7517 42.5764 28.7517C41.8858 28.7517 41.3262 28.1921 41.3262 27.502C41.3262 26.8113 41.8858 26.2517 42.5764 26.2517C43.2665 26.2517 43.8261 26.8113 43.8261 27.502Z" fill="#339ECF"/>
<path d="M45.5161 25.7682C45.8365 26.0887 46.3051 26.2105 46.7417 26.0869C47.1777 25.9633 47.5124 25.6132 47.6166 25.172C47.7207 24.7309 47.5782 24.268 47.2435 23.9618C44.3689 21.2119 41.6098 22.0433 40.5552 22.8707C40.0111 23.2964 39.9161 24.0826 40.3418 24.6262C40.7675 25.1697 41.5537 25.2653 42.0973 24.8396C42.1087 24.8281 43.4659 23.8056 45.5161 25.7682V25.7682Z" fill="#339ECF"/>
</g>
<defs>
<clipPath id="clip0">
<rect width="75" height="75" fill="white"/>
</clipPath>
</defs>
</svg>
