<svg width="75" height="75" viewBox="0 0 75 75" fill="none" xmlns="http://www.w3.org/2000/svg">
<g clip-path="url(#clip0)">
<path d="M71.2498 0H3.75023C1.67885 0 0 1.67885 0 3.75023V56.25C0 58.3208 1.67885 60.0002 3.75023 60.0002H27.5002V65.0002C24.0498 65.0042 21.254 67.7999 21.25 71.2498V73.7497C21.25 74.4404 21.8096 75 22.5002 75H52.4998C53.1904 75 53.75 74.4404 53.75 73.7497V71.2498C53.746 67.7999 50.9502 65.0042 47.4998 65.0002V60.0002H59.0652C59.4933 60.327 60.0163 60.5043 60.5553 60.5061C60.6726 60.4992 60.7893 60.4837 60.9049 60.4603L68.2503 73.1827C68.7258 74.0181 69.5171 74.6281 70.4464 74.8753C70.7548 74.9577 71.073 75 71.3923 75C72.0245 74.9994 72.6454 74.8318 73.1913 74.5136C74.9125 73.5077 75.5047 71.3047 74.5199 69.5715L68.9913 60.0002H71.2498C73.3212 60.0002 75 58.3208 75 56.25V3.75023C75 1.67885 73.3212 0 71.2498 0V0ZM2.49996 3.75023C2.49996 3.05958 3.05958 2.49996 3.75023 2.49996H71.2498C71.9404 2.49996 72.5 3.05958 72.5 3.75023V47.4998H67.6249C69.2717 42.5303 67.7856 37.0571 63.8517 33.6021C59.9173 30.1477 54.2976 29.3816 49.5827 31.6572C49.9123 30.5305 50.3597 29.4411 50.9176 28.4077C51.2363 27.8051 51.5865 27.2278 51.935 26.6499C52.6285 25.5718 53.2282 24.4354 53.726 23.2538C55.4478 18.8576 55.8998 12.8248 52.0002 9.08775C48.2935 5.51891 41.7727 5.31864 37.5 8.46348C33.2285 5.31979 26.7076 5.51777 22.9998 9.0786C19.0876 12.8202 19.5374 18.8536 21.2626 23.2498C21.7655 24.4429 22.3703 25.5901 23.0713 26.6785C23.4163 27.249 23.7625 27.8189 24.0801 28.414C24.9899 30.023 25.5838 31.7917 25.8299 33.6239C26.0239 35.828 26.3952 38.0127 26.94 40.1573C27.3611 41.7326 28.2423 44.9999 31.1714 44.9999C32.1098 44.9999 34.6087 44.9999 36.2022 33.5627C36.4626 31.7265 37.1052 31.4713 37.5011 31.4089C37.9177 31.4787 38.5351 31.7465 38.7875 33.5564C39.846 41.1713 41.2874 43.5362 42.2276 44.3636C42.2985 45.4302 42.5011 46.4836 42.8301 47.4998H2.49996V3.75023ZM61.1635 57.6599L60.8637 57.8339C60.8551 57.8339 60.8465 57.8339 60.8374 57.8424C60.8288 57.851 60.8248 57.855 60.8173 57.8602L60.5564 58.0112L59.2838 55.8163C61.0176 55.2784 62.6123 54.3686 63.9576 53.1498L65.2073 55.3236L61.1635 57.6599ZM41.2622 33.2148C40.8073 29.9515 39.0438 29.0714 37.6448 28.9089C37.5904 28.9089 37.536 28.9135 37.4823 28.9215C37.4411 28.9152 37.3993 28.9112 37.3575 28.9101C35.9602 29.0651 34.1961 29.9389 33.7326 33.2176C32.7576 40.21 31.4753 42.3077 31.176 42.5039C30.241 42.5039 29.7478 40.959 29.3552 39.5039C28.8465 37.4823 28.4992 35.424 28.3173 33.3475C28.0375 31.2023 27.3491 29.1304 26.2899 27.2438C25.9523 26.6087 25.5838 25.9935 25.2148 25.3899C24.5871 24.4223 24.0435 23.4026 23.5903 22.3423C22.2261 18.865 21.7049 13.7787 24.7227 10.8873C27.7399 7.99599 33.4213 8.05149 36.6537 11.0023C36.6663 11.0138 36.6823 11.0161 36.6961 11.0275C36.7098 11.039 36.7149 11.0561 36.7298 11.0676C36.7676 11.0962 40.4915 14.0213 41.4076 17.1427C41.5632 17.6748 42.0513 18.041 42.6064 18.041C42.7254 18.041 42.8444 18.0239 42.9588 17.9901C43.277 17.8968 43.5453 17.6805 43.7044 17.3893C43.8635 17.098 43.9001 16.7559 43.8063 16.4377C42.9102 14.0167 41.4265 11.8572 39.4873 10.1538C42.79 8.08525 47.5885 8.30898 50.2728 10.8902C53.2803 13.7764 52.8248 18.6985 51.3977 22.344C50.9502 23.3929 50.4141 24.4011 49.795 25.359C49.4202 25.9764 49.0448 26.5949 48.7078 27.2335C47.6475 29.1275 46.9591 31.2063 46.6799 33.359L46.6536 33.5752C44.7229 35.261 43.3319 37.4783 42.6538 39.9502C42.0061 37.7472 41.5409 35.4944 41.2622 33.2148V33.2148ZM49.9586 34.271C53.6591 32.1344 58.283 32.4371 61.6734 35.0378C65.0637 37.639 66.5531 42.0267 65.447 46.154C64.3415 50.2819 60.858 53.3369 56.6214 53.8948C52.3848 54.4527 48.2288 52.4031 46.0922 48.7026C44.6737 46.2799 44.2846 43.3908 45.0108 40.6792C45.7375 37.9675 47.5193 35.6598 49.9586 34.271V34.271ZM2.49996 56.25V49.9998H43.9573C46.5471 54.4985 51.5745 57.0139 56.7272 56.3885L57.375 57.5003H3.75023C3.05958 57.5003 2.49996 56.9401 2.49996 56.25V56.25ZM51.2501 71.2498V72.5H23.7499V71.2498C23.7499 69.179 25.4288 67.5001 27.5002 67.5001H47.4998C49.5712 67.5001 51.2501 69.179 51.2501 71.2498V71.2498ZM44.9999 65.0002H30.0001V60.0002H44.9999V65.0002ZM71.9364 72.3553C71.6829 72.5023 71.3802 72.5418 71.0976 72.464C70.8103 72.3867 70.566 72.1968 70.4201 71.9376L63.1702 59.3851L65.1026 58.2676L72.3524 70.82C72.6614 71.3591 72.4749 72.0457 71.9364 72.3553V72.3553ZM72.5 56.25C72.5 56.9401 71.9404 57.5003 71.2498 57.5003H67.5476L67.1722 56.8548C67.7959 56.0503 67.8778 54.9505 67.38 54.0625L65.7251 51.2026C66.0095 50.8163 66.2722 50.4152 66.5125 49.9998H72.5V56.25Z" fill="#339ECF"/>
<path d="M35.0003 54.9997H40.0002C40.6908 54.9997 41.2505 54.4401 41.2505 53.75C41.2505 53.0594 40.6908 52.4998 40.0002 52.4998H35.0003C34.3096 52.4998 33.75 53.0594 33.75 53.75C33.75 54.4401 34.3096 54.9997 35.0003 54.9997V54.9997Z" fill="#339ECF"/>
<path d="M14.9998 75C16.3805 75 17.4997 73.8808 17.4997 72.5001V71.2498C17.4997 66.4176 13.5824 62.5002 8.75015 62.5002C3.91731 62.5002 0 66.4176 0 71.2498V72.5001C0 73.8808 1.11923 75 2.49996 75H14.9998ZM2.49996 71.2498C2.50397 68.2812 4.59194 65.7229 7.49989 65.1249V67.5002C7.49989 68.1902 8.0595 68.7499 8.75015 68.7499C9.44023 68.7499 9.99985 68.1902 9.99985 67.5002V65.1249C12.9078 65.7229 14.9963 68.2812 14.9998 71.2498V72.5001H2.49996V71.2498Z" fill="#339ECF"/>
<path d="M27.0001 10.7362C24.4761 12.1982 23.1903 15.1262 23.8226 17.9735C23.9445 18.5508 24.4537 18.9639 25.0437 18.9651C25.1312 18.9651 25.2182 18.9559 25.304 18.9376C25.6279 18.869 25.9123 18.6744 26.0931 18.3969C26.2739 18.1188 26.3374 17.7806 26.2688 17.4562C25.8705 15.6869 26.651 13.861 28.2051 12.926C28.7968 12.5873 29.0073 11.8366 28.6789 11.2392C28.3499 10.6418 27.6032 10.4181 27.0001 10.7362Z" fill="#339ECF"/>
<path d="M6.25027 5C5.55962 5 5 5.55962 5 6.25027V7.49996C5 8.19061 5.55962 8.75023 6.25027 8.75023C6.94035 8.75023 7.49996 8.19061 7.49996 7.49996V6.25027C7.49996 5.55962 6.94035 5 6.25027 5Z" fill="#339ECF"/>
<path d="M6.25027 11.25C5.55962 11.25 5 11.8096 5 12.4997V20.0002C5 20.6902 5.55962 21.2498 6.25027 21.2498C6.94035 21.2498 7.49996 20.6902 7.49996 20.0002V12.4997C7.49996 11.8096 6.94035 11.25 6.25027 11.25Z" fill="#339ECF"/>
<path d="M48.75 46.2499C48.8192 46.2499 48.8891 46.2442 48.9571 46.2322C49.6381 46.1183 50.0975 45.474 49.9837 44.7936C48.976 38.7472 54.5699 37.5936 55.2113 37.482C55.8865 37.3618 56.3386 36.7198 56.2241 36.0435C56.1103 35.3671 55.4723 34.9094 54.7948 35.0175C53.3093 35.3139 51.9034 35.9216 50.6697 36.8011C48.0101 38.7025 46.7639 42.0242 47.5163 45.2062C47.617 45.8087 48.1389 46.2499 48.75 46.2499V46.2499Z" fill="#339ECF"/>
</g>
<defs>
<clipPath id="clip0">
<rect width="75" height="75" fill="white"/>
</clipPath>
</defs>
</svg>
