<svg width="10" height="10" viewBox="0 0 10 10" fill="none" xmlns="http://www.w3.org/2000/svg">
<path d="M9.99872 5.00539C10.0138 5.58232 9.89566 6.15604 9.65129 6.69286C9.40693 7.22969 9.04125 7.71881 8.57571 8.1315C8.11018 8.54419 7.55418 8.87214 6.94036 9.09608C6.32654 9.32003 5.66727 9.43546 5.00125 9.43561C4.33523 9.43575 3.67589 9.3206 3.06194 9.09692C2.44799 8.87324 1.89181 8.54554 1.42604 8.13305C0.960265 7.72056 0.5943 7.2316 0.349625 6.69488C0.10495 6.15816 -0.0135021 5.58449 0.00122213 5.00756C0.030111 3.87562 0.569283 2.79845 1.50332 2.00665C2.43736 1.21485 3.69203 0.77134 4.99875 0.771057C6.30547 0.770774 7.5604 1.21374 8.49489 2.00514C9.42939 2.79653 9.96918 3.87346 9.99872 5.00539Z" fill="#141414"/>
</svg>
