<svg width="70" height="37" viewBox="0 0 70 37" fill="none" xmlns="http://www.w3.org/2000/svg">
<path d="M35 0.107544C12.0365 0.107544 0 15.7111 0 18.1911C0 20.6647 12.0365 36.2747 35 36.2747C57.96 36.2747 70 20.6647 70 18.1911C70 15.7111 57.96 0.107544 35 0.107544ZM35 32.0993C26.4075 32.0993 19.4425 25.8734 19.4425 18.1911C19.4425 10.5088 26.4075 4.27645 35 4.27645C43.5925 4.27645 50.554 10.5088 50.554 18.1911C50.554 25.8734 43.5925 32.0993 35 32.0993ZM35 18.1911C33.5755 16.7476 37.3205 11.2354 35 11.2354C30.702 11.2354 27.2195 14.3516 27.2195 18.1911C27.2195 22.0306 30.702 25.1468 35 25.1468C39.2945 25.1468 42.7805 22.0306 42.7805 18.1911C42.7805 16.4247 36.211 19.415 35 18.1911Z" fill="white"/>
</svg>
