<svg width="50" height="50" viewBox="0 0 50 50" fill="none" xmlns="http://www.w3.org/2000/svg">
<circle cx="25" cy="25" r="24" fill="white" stroke="#339ECF" stroke-width="2"/>
<path d="M45.9493 37.5001V37.2204C45.3899 35.2624 43.9913 34.1435 42.5927 33.3043C41.1941 32.4652 39.8689 32.2798 38.75 32.0001C38.75 32.0001 38 31.7501 37.8374 31.626C37.6638 31.4934 37 31.2501 37 31.2501C37 31.2501 35.0402 30.2274 34.7605 29.1085C38.6766 29.3882 40.6346 27.7099 40.6346 27.7099L40.9143 27.4302V27.1505V26.8708C40.9143 26.8708 40.9143 26.591 40.6346 26.591C39.5157 26.0316 38.9563 24.633 38.6766 22.9547C38.3969 21.5561 38.3969 19.8777 38.3969 19.0386C38.3969 14.0036 35.0402 10.0875 30.5647 9.80782C28.6066 9.80782 26.6486 10.647 25.25 12.0456" stroke="#339ECF" stroke-width="1.56"/>
<path d="M35.5787 36.8531C35.0192 34.8951 33.6206 33.7762 32.222 32.9371C30.8234 32.0979 28.0262 31.5385 28.0262 31.5385L27.4668 31.2587C27.4668 31.2587 24.3899 29.5804 24.1101 28.4615C25.5087 27.0629 26.9073 25.1049 27.4668 23.1469C28.3059 22.028 28.5857 21.1888 28.5857 20.0699C28.5857 19.5105 28.3059 18.951 28.0262 18.6713C27.7465 13.9161 24.1101 10 19.9143 10C15.4388 10 12.0822 13.9161 11.8024 18.6713C11.243 19.2308 10.9633 19.7902 10.9633 20.3497C10.9633 21.4685 11.5227 22.5874 12.6416 23.7063C13.201 25.6643 14.3199 27.3427 15.7185 28.4615C15.4388 29.8601 14.3199 30.6993 12.9213 31.2587C12.6416 31.2587 12.3619 31.5385 11.8024 31.5385C10.6836 31.8182 9.00524 32.0979 7.60664 32.9371C6.20804 33.7762 4.80944 34.8951 4.25 36.8531" stroke="#339ECF" stroke-width="1.56"/>
</svg>
