<svg width="50" height="50" viewBox="0 0 50 50" fill="none" xmlns="http://www.w3.org/2000/svg">
<circle cx="25" cy="25" r="24" fill="white" stroke="#339ECF" stroke-width="2"/>
<path d="M29.1215 31.3527C29.0417 31.3427 28.9604 31.3507 28.8847 31.376C28.809 31.4013 28.7412 31.4432 28.6871 31.498C28.632 31.5518 28.5917 31.6168 28.5693 31.6877C28.5469 31.7586 28.5431 31.8333 28.5583 31.9058C28.8404 33.2652 29.79 35.1309 32.7054 36.2925C33.0509 36.4294 33.5845 36.5363 34.2612 36.6704C36.7943 37.1729 41.0304 38.0148 42.071 41.5756C42.0884 41.6351 42.1185 41.6909 42.1595 41.7398C42.2004 41.7886 42.2515 41.8296 42.3097 41.8604C42.368 41.8912 42.4322 41.9111 42.4989 41.9191C42.5655 41.9271 42.6332 41.923 42.6981 41.907C42.763 41.891 42.8239 41.8634 42.8772 41.8258C42.9304 41.7883 42.9751 41.7415 43.0087 41.688C43.0422 41.6346 43.064 41.5757 43.0727 41.5146C43.0814 41.4534 43.0769 41.3913 43.0595 41.3318C41.8563 37.2188 37.057 36.2654 34.4779 35.7535C33.881 35.6344 33.3647 35.5322 33.1123 35.4309C31.3602 34.7334 30.2286 33.6984 29.7379 32.3502C34.6057 32.6821 36.8096 30.9036 36.9067 30.8229C36.9666 30.7732 37.0128 30.7112 37.0415 30.6419C37.0701 30.5727 37.0805 30.4982 37.0717 30.4245C37.063 30.3509 37.0353 30.2802 36.991 30.2183C36.9466 30.1563 36.887 30.1049 36.8168 30.0682C34.0077 28.5963 34.0077 23.5101 34.0077 21.5947C34.0077 16.2386 30.0742 11.9925 25.0316 11.9259C24.9836 11.9244 24.9355 11.9235 24.8875 11.9231H24.8864C19.7702 11.9493 15.6078 16.2001 15.6078 21.3997C15.6078 23.3151 15.6078 28.4022 12.7987 29.8732C12.7263 29.9118 12.6652 29.966 12.6209 30.0311C12.5765 30.0963 12.5501 30.1704 12.5441 30.247C12.5381 30.3236 12.5525 30.4004 12.5862 30.4707C12.6199 30.541 12.6718 30.6027 12.7374 30.6504C12.8784 30.7508 15.9962 32.939 19.8326 32.2743C19.3194 33.5662 18.2032 34.56 16.5022 35.2378C16.2558 35.3363 15.7652 35.4441 15.1968 35.5678C12.6004 36.1341 7.7663 37.1888 6.556 41.3309C6.53861 41.3904 6.53418 41.4525 6.54296 41.5136C6.55174 41.5747 6.57355 41.6336 6.60715 41.687C6.67501 41.7947 6.78678 41.8734 6.91786 41.9056C7.04894 41.9378 7.1886 41.9209 7.30612 41.8587C7.42363 41.7964 7.50937 41.6939 7.54448 41.5737C8.59635 37.9698 12.8774 37.037 15.434 36.4782C16.0749 36.3385 16.5809 36.2279 16.9101 36.0975C19.8254 34.9359 20.7741 33.0702 21.0572 31.7108C21.074 31.6312 21.0679 31.5489 21.0394 31.4721C21.0109 31.3953 20.961 31.3267 20.8947 31.273C20.8289 31.2188 20.7488 31.1813 20.6624 31.1642C20.576 31.1471 20.4862 31.151 20.402 31.1755C17.6348 31.9742 15.0782 30.8754 13.961 30.266C16.63 28.2166 16.63 23.4998 16.63 21.3997C16.63 16.7149 20.3365 12.8841 24.9304 12.8588L25.0388 12.8644C29.5692 12.9234 32.9855 16.6764 32.9855 21.5947C32.9855 23.6958 32.9855 28.4228 35.6658 30.4723C34.7427 30.9561 32.6379 31.7389 29.1215 31.3527Z" fill="#339ECF"/>
</svg>
