<svg width="59" height="72" viewBox="0 0 59 72" fill="none" xmlns="http://www.w3.org/2000/svg">
<path fill-rule="evenodd" clip-rule="evenodd" d="M8.9457 43.5012C8.41709 47.1933 9.31113 50.9456 10.951 53.7299C14.2951 59.4072 19.0033 58.1436 22.1418 61.9376C25.5376 66.0446 30.7368 68.4165 35.9595 65.8828C43.2767 62.3333 41.2486 52.3156 34.4569 51.1546C33.328 50.9612 32.4154 51.0969 31.3427 50.9438C29.4866 50.6805 27.962 48.416 24.9323 49.8656C24.7482 49.9532 24.5152 50.1021 24.4229 50.1535L23.744 50.5298L22.632 47.7974C24.1401 48.0435 25.8328 48.8806 27.2777 48.8419C28.4416 48.8112 28.3738 48.7826 28.6875 48.0845C28.062 47.2541 26.1437 47.3969 25.1293 47.0925C20.2067 45.6142 21.3037 47.0452 21.8864 49.9146C24.6616 54.5809 19.9642 54.5815 20.068 56.4542C22.4174 57.0353 23.6429 54.3648 24.0778 52.7342C24.3324 51.7783 25.0297 51.0923 26.2737 50.8278C27.8785 50.4864 28.5348 51.3542 29.5818 51.8487C31.9234 52.9559 33.7727 51.4811 36.478 53.426C42.0292 57.4186 38.4683 67.5505 29.2875 65.2281C24.5899 64.0397 23.5338 60.625 21.0148 59.0388C20.6019 58.7795 20.0327 58.6003 19.6832 58.2832C7.94943 55.3111 7.68337 40.0095 15.5961 35.4109C21.108 32.2071 22.8709 37.2013 25.6087 36.5926C26.2296 35.4379 24.8482 32.5413 27.8066 33.7159C29.8644 34.533 30.9475 35.9992 31.0477 38.2498C29.7724 37.6637 30.7876 37.5368 29.4279 37.3909C28.474 38.4863 30.2036 39.3887 30.751 41.0498C31.3939 42.9996 30.8053 44.5905 29.6792 45.6009C27.78 45.735 26.8754 45.433 25.5358 44.5249C22.9594 42.7801 16.4806 36.4969 15.5312 39.8122C16.2397 40.5779 17.8545 39.8713 20.507 42.0025C21.127 42.5012 21.1431 42.7298 21.7808 43.1794C19.1552 43.2685 17.3448 43.2968 16.5307 45.7546C16.2055 46.7374 16.2075 47.8961 16.3066 48.9736C16.4515 50.5528 16.2901 51.2697 17.8419 51.2459C18.0097 49.3973 17.1042 47.3386 18.0459 45.6331C19.987 42.1201 26.1392 46.7547 27.3656 47.0216C30.3475 47.6723 31.0848 45.7713 32.1343 45.2213C34.1196 46.6468 32.7157 48.095 36.4956 47.572C38.0828 50.783 46.4916 57.0506 40.3219 64.4519C35.9686 69.6736 27.0106 70.6901 22.3867 64.8756C21.4812 63.7367 20.5648 62.5504 19.4012 61.7137C18.3824 60.9807 16.3638 60.3167 15.1112 59.497C9.26653 55.6756 6.62151 48.9145 7.71957 42.2139C8.34709 38.3824 9.66286 36.7844 11.9323 33.6913C12.4505 33.0206 12.7484 32.7541 13.3693 32.1819C13.9361 31.6604 14.2589 31.3858 14.969 30.9577C16.355 30.1214 17.3802 29.6184 19.1835 29.1592C22.5808 28.2949 26.4599 28.7288 29.0748 30.1593C31.7591 31.6273 32.7885 33.6205 33.2138 37.3806C33.7565 42.1728 33.5066 42.4821 35.4923 46.4527C33.7881 46.0986 35.2395 46.217 32.3611 43.7055C32.5269 41.5379 31.9744 40.563 32.36 38.5432C32.6929 36.7977 31.9387 35.2375 31.0477 34.2215C30.129 33.174 24.2982 29.6333 24.2474 34.8572C22.3763 34.0385 21.447 32.875 18.3727 33.1094C13.2114 33.7032 9.56152 39.1898 8.9457 43.5012V43.5012ZM14.3872 29.5223C14.3872 29.5223 11.827 30.9324 9.76776 33.8178C4.77141 40.5823 4.76852 50.5516 10.2626 57.0401C14.3664 61.887 17.6542 61.4532 19.9554 64.139C21.5918 66.0492 23.0149 68.1356 25.9445 69.232C31.8733 71.4501 37.7853 69.4338 41.5902 65.0845C43.6748 62.7023 44.4293 58.7284 43.496 55.8633C41.295 49.1036 35.6539 47.9806 34.8257 39.3294C34.3841 34.716 33.9648 30.583 28.7657 28.4746C26.3484 27.4943 23.7168 27.1408 20.8455 27.4965C17.0322 27.9698 14.3872 29.5223 14.3872 29.5223V29.5223Z" fill="#339ECF" stroke="#339ECF" stroke-width="0.1693" stroke-miterlimit="22.9256"/>
<path fill-rule="evenodd" clip-rule="evenodd" d="M11.3009 9.53521C9.35271 10.963 6.12389 13.9482 6.30649 17.9235C6.50588 22.2671 10.4631 23.2727 13.8896 23.8683C11.95 25.3466 10.549 25.7612 8.19568 28.265C-1.26068 38.3279 -1.28629 52.0127 7.46858 62.7067C9.32002 64.9688 16.4149 70.9419 19.2637 70.8874C19.2924 70.792 19.3629 70.4236 19.3823 69.9513C16.053 67.8499 15.2265 67.8498 11.5733 64.8637C6.88722 61.0319 3.69593 55.3014 2.82707 49.6952C1.81976 43.1874 3.21369 37.1375 7.02234 31.8238C10.6747 26.7288 14.0457 24.9709 20.1041 23.1797C21.3163 22.8202 21.9496 22.7994 22.026 21.8761C20.8533 21.0628 18.5013 22.5014 16.7198 22.6261C10.3463 23.0717 5.17798 19.7187 8.97315 13.8718C9.81994 12.5664 10.9206 11.6664 12.1055 10.6166C14.7275 8.29284 21.419 5.76785 21.1697 1L20.105 1.10886C18.5264 3.58647 18.698 4.47195 16.437 5.98813L12.5413 8.56348C11.9907 8.97748 11.9379 9.1234 11.3009 9.53521V9.53521Z" fill="#339ECF" stroke="#339ECF" stroke-width="0.1693" stroke-miterlimit="22.9256"/>
<path fill-rule="evenodd" clip-rule="evenodd" d="M46.9479 15.254C45.3053 21.0557 41.4446 29.7781 42.4852 35.9445C43.4987 44.9497 52.0028 50.2447 56.1793 59.0083C57.9143 62.6496 56.8832 70.8957 56.9042 70.9334C56.9673 70.9285 58.756 71 58.756 71C58.756 71 59.4737 61.3259 57.3855 57.7231C54.6414 52.9884 53.0785 52.0982 51.91 50.2994C49.611 46.8776 40.2092 38.9924 44.9947 25.9137C45.9441 23.2573 51.6404 6.5691 50.81 5.53571L49.7071 5.70226L46.9479 15.254V15.254Z" fill="#339ECF" stroke="#339ECF" stroke-width="0.1693" stroke-miterlimit="22.9256"/>
</svg>
