<svg width="38" height="70" viewBox="0 0 38 70" fill="none" xmlns="http://www.w3.org/2000/svg">
<path d="M35.2449 3.60878C34.2146 2.39992 32.9631 1.45308 31.5756 0.832728C30.188 0.212375 28.6971 -0.0669295 27.2042 0.0138288C24.7474 0.0720132 22.3654 0.967426 20.3774 2.57999C19.9349 2.86871 19.4315 3.02086 18.9189 3.02086C18.4063 3.02086 17.9029 2.86871 17.4604 2.57999C15.4701 0.965624 13.0849 0.0701187 10.6253 0.0138288C9.13168 -0.0676093 7.63991 0.211363 6.25161 0.831737C4.86331 1.45211 3.61111 2.39931 2.58033 3.60878C0.529385 6.17494 -0.324215 9.81189 0.110421 14.1405C0.344456 16.4617 1.47702 19.5551 3.47259 23.3426H2.19793C2.01982 23.3425 1.84464 23.3932 1.68904 23.49C1.53343 23.5867 1.40257 23.7263 1.30888 23.8954C1.21519 24.0645 1.16177 24.2576 1.15371 24.4562C1.14566 24.6549 1.18322 24.8525 1.26283 25.0304L5.44203 34.3619C5.52882 34.5558 5.66229 34.7188 5.82746 34.8328C5.99263 34.9467 6.18297 35.007 6.37713 35.0069H10.6232L10.7632 37.3398H8.46673C8.21584 37.3397 7.97331 37.4404 7.78346 37.6236C7.59361 37.8067 7.46912 38.0599 7.43273 38.3371C7.39635 38.6142 7.4505 38.8967 7.58529 39.1329C7.72009 39.3691 7.92652 39.5433 8.16687 39.6237L10.9544 40.5568L11.1832 44.3384H8.46673C8.21584 44.3383 7.97331 44.4391 7.78346 44.6222C7.59361 44.8053 7.46912 45.0585 7.43273 45.3357C7.39635 45.6128 7.4505 45.8953 7.58529 46.1315C7.72009 46.3678 7.92652 46.542 8.16687 46.6223L11.3817 47.6989L11.6011 51.337H8.46673C8.21584 51.337 7.97331 51.4377 7.78346 51.6208C7.59361 51.8039 7.46912 52.0572 7.43273 52.3343C7.39635 52.6114 7.4505 52.8939 7.58529 53.1301C7.72009 53.3664 7.92652 53.5406 8.16687 53.6209L11.8101 54.8363L12.019 58.3356H8.46673C8.21584 58.3356 7.97331 58.4363 7.78346 58.6194C7.59361 58.8025 7.46912 59.0558 7.43273 59.3329C7.39635 59.61 7.4505 59.8925 7.58529 60.1288C7.72009 60.365 7.92652 60.5392 8.16687 60.6195L12.2343 61.9819L12.6522 68.9105C12.6696 69.2052 12.7865 69.4814 12.9793 69.6836C13.172 69.8858 13.4263 69.9989 13.6907 70H24.1387C24.4043 70.0006 24.6601 69.8884 24.8542 69.686C25.0482 69.4836 25.166 69.2064 25.1835 68.9105L25.2556 67.6671H29.3627C29.6136 67.6672 29.8561 67.5665 30.046 67.3834C30.2358 67.2002 30.3603 66.947 30.3967 66.6699C30.4331 66.3927 30.3789 66.1102 30.2442 65.874C30.1094 65.6378 29.9029 65.4636 29.6626 65.3832L25.4761 63.9835L25.6735 60.6685H29.3627C29.6136 60.6686 29.8561 60.5678 30.046 60.3847C30.2358 60.2016 30.3603 59.9484 30.3967 59.6712C30.4331 59.3941 30.3789 59.1116 30.2442 58.8754C30.1094 58.6391 29.9029 58.4649 29.6626 58.3846L25.8856 57.119L26.0946 53.6699H29.3627C29.6136 53.67 29.8561 53.5692 30.046 53.3861C30.2358 53.203 30.3603 52.9497 30.3967 52.6726C30.4331 52.3955 30.3789 52.113 30.2442 51.8768C30.1094 51.6405 29.9029 51.4663 29.6626 51.386L26.2952 50.2581L26.5041 46.6713H29.3627C29.6136 46.6713 29.8561 46.5706 30.046 46.3875C30.2358 46.2044 30.3603 45.9511 30.3967 45.674C30.4331 45.3969 30.3789 45.1144 30.2442 44.8781C30.1094 44.6419 29.9029 44.4677 29.6626 44.3874L26.7047 43.3971L27.2063 35.0069H31.4523C31.6474 35.0081 31.8388 34.9483 32.005 34.8343C32.1712 34.7203 32.3055 34.5567 32.3926 34.3619L36.5718 25.0304C36.6517 24.8521 36.6892 24.6539 36.6809 24.4548C36.6726 24.2556 36.6187 24.0622 36.5244 23.8929C36.4301 23.7236 36.2985 23.5842 36.1422 23.4878C35.9859 23.3915 35.8101 23.3415 35.6315 23.3426H34.3527C36.3482 19.5551 37.4808 16.4606 37.7148 14.1405C38.1495 9.81189 37.2959 6.17028 35.2449 3.60878ZM23.1608 67.6671H14.6687L14.3719 62.6981L23.2799 65.6842L23.1608 67.6671ZM23.422 63.293L14.2278 60.2124L13.9498 55.556L23.6936 58.822L23.422 63.293ZM23.8316 56.432L13.8015 53.0703L13.5183 48.4209L24.099 51.9646L23.8316 56.432ZM24.2422 49.5699L13.37 45.9294L13.0921 41.273L24.5086 45.0966L24.2422 49.5699ZM24.6517 42.7089L12.9437 38.7885L12.718 35.0069H25.1114L24.6517 42.7089ZM32.8962 28.0083H26.2283V30.3412H31.8514L30.8066 32.674H7.02281L5.97802 30.3412H13.6907V28.0083H4.93322L3.88842 25.6754H33.941L32.8962 28.0083ZM35.6378 13.8816C35.4832 15.4166 34.709 18.2977 31.9131 23.3426H5.91637C3.12049 18.2977 2.34629 15.4166 2.19166 13.8816C1.82494 10.2306 2.49883 7.2154 4.1423 5.16364C4.97941 4.20352 5.99137 3.45518 7.10979 2.96921C8.22822 2.48324 9.42705 2.27096 10.6253 2.3467C12.6184 2.40505 14.5502 3.12907 16.1711 4.42529C18.4887 6.55644 21.3953 7.72685 24.3978 7.73797C25.842 7.73184 27.2759 7.4672 28.6449 6.95412L27.9909 4.7379C25.7602 5.59528 23.3406 5.62188 21.0952 4.81371C21.283 4.70865 21.4623 4.58572 21.6312 4.44629C23.2573 3.13626 25.1996 2.4045 27.2042 2.3467C28.4024 2.27096 29.6012 2.48324 30.7197 2.96921C31.8381 3.45518 32.85 4.20352 33.6871 5.16364C35.3306 7.2154 36.0045 10.2306 35.6378 13.8816Z" fill="#34A1D3"/>
</svg>
