<svg width="50" height="50" viewBox="0 0 50 50" fill="none" xmlns="http://www.w3.org/2000/svg">
<circle cx="25" cy="25" r="24" fill="white" stroke="#339ECF" stroke-width="2"/>
<path d="M7.30228 41.9232C7.4332 41.9574 7.57229 41.9385 7.6894 41.8708C7.80651 41.803 7.89221 41.6919 7.92791 41.5614C8.98086 37.6327 13.2601 36.6145 15.8179 36.0053C16.4588 35.8529 16.9649 35.7323 17.294 35.5902C20.2075 34.3257 21.1572 32.2913 21.4414 30.807C21.4583 30.7187 21.4516 30.6274 21.422 30.5426C21.3924 30.4577 21.3409 30.3821 21.2728 30.3234C19.7557 29.0139 18.4758 27.048 17.6682 24.7868C17.6454 24.7219 17.6096 24.6624 17.5629 24.6119C16.4946 23.4506 15.8813 22.2229 15.8813 21.2446C15.8813 20.6731 16.097 20.2897 16.5825 20.0004C16.6553 19.957 16.7161 19.8961 16.7594 19.8233C16.8028 19.7505 16.8274 19.668 16.831 19.5833C17.0569 14.3759 20.7657 10.2765 25.3149 10.2499L25.4242 10.2571C29.9959 10.3205 33.6812 14.5077 33.8131 19.7888C33.8149 19.861 33.8321 19.932 33.8635 19.997C33.8948 20.0621 33.9397 20.1197 33.995 20.166C34.315 20.437 34.4643 20.7804 34.4643 21.2466C34.4643 22.0654 34.0278 23.0724 33.2365 24.0804C33.1988 24.1289 33.1698 24.1835 33.1506 24.2419C32.3328 26.8344 30.8648 29.1233 29.1249 30.5238C29.0528 30.582 28.9978 30.6586 28.9658 30.7456C28.9338 30.8325 28.9259 30.9265 28.9429 31.0176C29.2271 32.5009 30.1768 34.5342 33.0903 35.8008C33.4348 35.9501 33.9695 36.0666 34.6473 36.2128C37.1794 36.7607 41.4168 37.6798 42.4565 41.5614C42.4739 41.6262 42.504 41.687 42.5449 41.7402C42.5858 41.7934 42.6369 41.8381 42.6951 41.8716C42.7532 41.9051 42.8175 41.9268 42.884 41.9355C42.9506 41.9442 43.0183 41.9397 43.0831 41.9222C43.148 41.9048 43.2087 41.8747 43.262 41.8338C43.3152 41.7928 43.3598 41.7418 43.3933 41.6836C43.4268 41.6254 43.4486 41.5612 43.4573 41.4946C43.4659 41.4281 43.4614 41.3604 43.444 41.2956C42.2428 36.8108 37.4422 35.7712 34.864 35.213C34.2659 35.0832 33.7497 34.9717 33.4982 34.8613C31.5968 34.0353 30.4252 32.7769 30.0112 31.1147C31.7767 29.5986 33.2539 27.2597 34.0983 24.6365C34.9948 23.4711 35.4876 22.2709 35.4876 21.2456C35.4876 20.5617 35.2668 19.9912 34.8292 19.5455C34.5859 13.8167 30.4978 9.30534 25.4242 9.23276L25.2719 9.23071C20.2903 9.25729 16.1849 13.65 15.8261 19.2797C15.1861 19.75 14.861 20.4094 14.861 21.2466C14.861 22.456 15.5449 23.9025 16.742 25.2294C17.569 27.5019 18.851 29.4984 20.3772 30.8959C19.9653 32.5643 18.7927 33.8268 16.8872 34.6538C16.6408 34.7612 16.1501 34.8787 15.5817 35.0137C12.9841 35.6311 8.15077 36.7812 6.94039 41.2976C6.90543 41.4286 6.92392 41.568 6.99178 41.6854C7.05965 41.8027 7.17133 41.8883 7.30228 41.9232V41.9232Z" fill="#339ECF"/>
</svg>
