<svg width="70" height="70" viewBox="0 0 70 70" fill="none" xmlns="http://www.w3.org/2000/svg">
<g clip-path="url(#clip0)">
<path d="M24.5001 13.9998C23.856 13.9998 23.3335 13.4771 23.3335 12.8333C23.3335 12.1892 23.8563 11.6667 24.5001 11.6667C27.8728 11.6667 32.5755 6.91603 34.104 5.08574C34.517 4.59102 35.2518 4.52459 35.7465 4.93764C36.2413 5.35069 36.3077 6.08453 35.8959 6.58023C35.2636 7.33941 29.5668 13.9998 24.5001 13.9998Z" fill="#34A1D4"/>
<path d="M48.9997 38.4992H21.0001C20.356 38.4992 19.8335 37.9764 19.8335 37.3326V18.6663C19.8335 18.0222 20.3563 17.4997 21.0001 17.4997H48.9997C49.6437 17.4997 50.1662 18.0225 50.1662 18.6663V37.3326C50.1662 37.9767 49.6435 38.4992 48.9997 38.4992ZM22.1666 36.166H47.8329V19.8329H22.1666V36.166Z" fill="#34A1D4"/>
<path d="M31.5001 33.8327H26.8336C26.1895 33.8327 25.667 33.3099 25.667 32.6661V23.3329C25.667 22.6888 26.1898 22.1663 26.8336 22.1663H31.5001C32.1441 22.1663 32.6667 22.6891 32.6667 23.3329V32.6659C32.6667 33.3102 32.1441 33.8327 31.5001 33.8327ZM28.0001 31.4993H30.3335V24.4997H28.0001V31.4993Z" fill="#34A1D4"/>
<path d="M43.1666 33.8327H38.5001C37.856 33.8327 37.3335 33.3099 37.3335 32.6661V23.3329C37.3335 22.6888 37.8563 22.1663 38.5001 22.1663H43.1666C43.8106 22.1663 44.3332 22.6891 44.3332 23.3329V32.6659C44.3332 33.3102 43.8106 33.8327 43.1666 33.8327ZM39.6666 31.4993H42V24.4997H39.6666V31.4993Z" fill="#34A1D4"/>
<path d="M21.0002 31.4993H1.1673C0.523253 31.4993 0.000732422 30.9765 0.000732422 30.3327V25.6662C0.000732422 25.0222 0.523499 24.4996 1.1673 24.4996H21.0002C21.6442 24.4996 22.1668 25.0224 22.1668 25.6662V30.3327C22.1668 30.9768 21.6442 31.4993 21.0002 31.4993ZM2.33387 29.1662H19.8336V26.8328H2.33387V29.1662Z" fill="#34A1D4"/>
<path d="M68.8327 31.4993H48.9998C48.3558 31.4993 47.8333 30.9765 47.8333 30.3327V25.6662C47.8333 25.0222 48.356 24.4996 48.9998 24.4996H68.8327C69.4768 24.4996 69.9993 25.0224 69.9993 25.6662V30.3327C69.9993 30.9768 69.4768 31.4993 68.8327 31.4993ZM50.1664 29.1662H67.6662V26.8328H50.1664V29.1662Z" fill="#34A1D4"/>
<path d="M26.8334 29.1662H21.0001C20.356 29.1662 19.8335 28.6434 19.8335 27.9996C19.8335 27.3556 20.3563 26.833 21.0001 26.833H26.8334C27.4774 26.833 28 27.3558 28 27.9996C28 28.6434 27.4772 29.1662 26.8334 29.1662Z" fill="#34A1D4"/>
<path d="M38.5 29.1662H31.5001C30.856 29.1662 30.3335 28.6434 30.3335 27.9996C30.3335 27.3556 30.8563 26.833 31.5001 26.833H38.5C39.144 26.833 39.6665 27.3558 39.6665 27.9996C39.6665 28.6434 39.1438 29.1662 38.5 29.1662Z" fill="#34A1D4"/>
<path d="M48.9999 29.1662H43.1666C42.5225 29.1662 42 28.6434 42 27.9996C42 27.3556 42.5228 26.833 43.1666 26.833H48.9999C49.6439 26.833 50.1665 27.3558 50.1665 27.9996C50.1665 28.6434 49.6437 29.1662 48.9999 29.1662Z" fill="#34A1D4"/>
<path d="M51.4964 70C51.2863 70 51.074 69.9744 50.8617 69.923C49.9539 69.6989 49.2331 69.0015 48.9822 68.1043C46.6257 59.709 41.0292 45.4994 34.9998 45.4994C28.9704 45.4994 23.3743 59.709 21.0187 68.1043C20.7668 69.0015 20.047 69.6979 19.1392 69.923C18.227 70.1459 17.2971 69.8775 16.6543 69.1985C11.2025 63.4459 11.6471 51.7757 11.6692 51.2823C11.667 47.3459 12.7612 42.6644 13.6793 39.4385C14.3886 36.9454 13.9209 34.2726 12.3959 32.1072C12.1649 31.7793 11.9433 31.4516 11.731 31.1237C11.7194 31.105 11.6586 31.0046 11.6481 30.9859C11.4417 30.6255 11.4217 30.1436 11.6306 29.7841C11.8395 29.4247 12.2011 29.1659 12.6164 29.1659H19.8332V26.8325H10.2473C9.76906 26.8325 9.33854 26.5408 9.1624 26.0953C7.72867 22.4728 7.00049 18.6147 7.00049 14.6306V11.6662C7.00049 2.43818 16.9217 0 22.1669 0C28.8132 0 33.2547 2.90141 34.9998 4.29086C36.7453 2.90141 41.1867 0 47.8331 0C53.0782 0 62.9995 2.43818 62.9995 11.6664V14.6308C62.9995 18.6149 62.2715 22.473 60.8366 26.0955C60.6616 26.5413 60.2311 26.8328 59.7526 26.8328H50.1662V29.1662H57.3831C57.8089 29.1662 58.2021 29.3984 58.4062 29.7728C58.6117 30.1463 58.5952 30.6024 58.3666 30.9615L58.2697 31.1224C58.0574 31.4513 57.8345 31.7793 57.6035 32.1082C56.0775 34.2735 55.6096 36.9462 56.3201 39.4394C57.2382 42.6641 58.3324 47.3459 58.3324 51.3322C58.3534 51.7755 58.7979 63.4454 53.3461 69.1983C52.8531 69.7198 52.1906 70 51.4964 70ZM35.0001 43.166C43.7277 43.166 49.6275 61.7715 51.2282 67.4742C51.2632 67.6002 51.3648 67.6435 51.4206 67.6575C51.5139 67.6809 51.5909 67.6587 51.6516 67.5945C56.4313 62.5524 56.0045 51.496 55.9998 51.3841C55.9986 47.617 54.9521 43.1615 54.0748 40.0781C53.2512 37.1813 53.6699 34.1013 55.218 31.4998H48.9999C48.3558 31.4998 47.8333 30.977 47.8333 30.3332V25.6667C47.8333 25.0227 48.3561 24.5001 48.9999 24.5001H58.948C60.0889 21.3665 60.6663 18.0511 60.6663 14.6316V11.6672C60.6663 2.46573 48.3559 2.3351 47.8321 2.33387C40.2873 2.33387 35.867 6.61785 35.8227 6.6609C35.3666 7.11233 34.6281 7.11233 34.1755 6.65869C34.1334 6.61785 29.7131 2.33387 22.1671 2.33387C21.6443 2.3351 9.33412 2.46573 9.33412 11.6672V14.6316C9.33412 18.0511 9.9115 21.3665 11.0525 24.5001H21.0005C21.6446 24.5001 22.1671 25.0229 22.1671 25.6667V30.3327C22.1671 30.9768 21.6443 31.4993 21.0005 31.4993H14.781C16.3291 34.1008 16.749 37.1809 15.9242 40.0776C15.0469 43.1611 14.0004 47.6153 14.0004 51.3322C13.9945 51.4943 13.578 62.5612 18.3473 67.5928C18.4091 67.6582 18.4873 67.6779 18.5796 67.657C18.6367 67.643 18.737 67.6009 18.772 67.4737C20.3727 61.7715 26.2725 43.166 35.0001 43.166Z" fill="#34A1D4"/>
</g>
<defs>
<clipPath id="clip0">
<rect width="70" height="70" fill="white"/>
</clipPath>
</defs>
</svg>
