<svg width="26" height="25" viewBox="0 0 26 25" fill="none" xmlns="http://www.w3.org/2000/svg">
<path d="M3.59326 17.9161C3.4853 17.9161 3.37689 17.8753 3.29429 17.7944C1.28612 15.8253 0.18042 13.205 0.18042 10.4164C0.18042 4.67278 4.9298 0 10.7676 0C13.5888 0 16.2428 1.07917 18.2408 3.03825C18.4064 3.20079 18.4068 3.4641 18.2416 3.62743C18.0764 3.79032 17.8085 3.79032 17.6428 3.62822C15.8048 1.82624 13.363 0.833342 10.7676 0.833342C5.39693 0.833254 1.02742 5.13193 1.02742 10.4164C1.02742 12.9821 2.04508 15.3929 3.89232 17.2045C4.05788 17.3671 4.05833 17.6304 3.89313 17.7937C3.81052 17.8753 3.70211 17.9161 3.59326 17.9161Z" fill="#34A1D3"/>
<path d="M7.26771 24.9991C7.26307 24.9991 7.25798 24.9991 7.25333 24.9991C5.91724 24.9936 4.83395 23.9208 4.83948 22.6075V19.6659C4.81198 18.4592 5.70765 17.4222 6.92516 17.2534C7.85682 17.133 8.77151 16.9093 9.64861 16.5877C10.5307 16.2622 11.5344 16.4726 12.2056 17.1239L13.2478 18.1471C15.4694 16.8463 17.3285 15.021 18.6532 12.8402L17.6136 11.8194C16.9483 11.1586 16.734 10.1719 17.066 9.30406C17.3929 8.44453 17.6207 7.54574 17.7427 6.63534C17.9129 5.45206 18.9556 4.56627 20.1684 4.58287H23.1667C23.2392 4.58287 23.3111 4.58621 23.3831 4.59245C24.0277 4.64991 24.6116 4.94995 25.0267 5.43827C25.4416 5.92703 25.6382 6.54494 25.5801 7.17901C25.2456 10.2731 24.1606 13.2821 22.4413 15.8884C20.8842 18.2946 18.7625 20.3774 16.3084 21.909C13.67 23.589 10.6197 24.6543 7.4906 24.9881C7.41211 24.9958 7.33977 24.9991 7.26771 24.9991ZM10.4985 17.2698C10.3121 17.2698 10.1246 17.3019 9.94499 17.3685C9.00744 17.7119 8.02997 17.951 7.03901 18.079C6.24925 18.1885 5.66604 18.8643 5.68595 19.6506V19.6606V22.6084C5.68256 23.4643 6.38722 24.1617 7.25753 24.165C7.30709 24.1638 7.35621 24.1634 7.40487 24.1584C10.3964 23.8392 13.3193 22.8184 15.8504 21.2067C18.2033 19.7389 20.2348 17.744 21.7276 15.4369C23.3767 12.9374 24.4163 10.0541 24.736 7.09669C24.7732 6.69131 24.6453 6.28918 24.3756 5.97218C24.1058 5.65431 23.7256 5.45882 23.3059 5.42175C23.2597 5.41885 23.2127 5.4163 23.1661 5.4163H20.164C19.3823 5.41006 18.6924 5.98132 18.5819 6.74833C18.4519 7.71706 18.2084 8.67701 17.8586 9.59698C17.6426 10.1616 17.7815 10.8028 18.213 11.2311L19.4822 12.4773C19.6174 12.6098 19.6457 12.8156 19.5513 12.9785C18.0898 15.503 15.9584 17.5955 13.3878 19.0308C13.2223 19.1225 13.0143 19.0958 12.8796 18.9634L11.6087 17.7155C11.3095 17.4252 10.9076 17.2698 10.4985 17.2698Z" fill="#34A1D3"/>
<path d="M7.05947 15.8323C6.87784 15.8323 6.70076 15.759 6.57377 15.6261C5.56505 14.5691 5.64551 12.47 5.64935 12.3812C5.6489 11.6875 5.84331 10.8596 6.00681 10.29C6.11227 9.92214 6.04235 9.52756 5.815 9.2067C5.77347 9.14793 5.73409 9.08959 5.69596 9.03169C5.1348 8.17383 4.83887 7.15045 4.83887 6.07093V5.55968C4.83887 3.79846 6.70558 3.33307 7.69269 3.33307C8.75393 3.33307 9.51449 3.84432 9.92062 4.20718C10.3268 3.84423 11.0873 3.33307 12.1485 3.33307C13.1357 3.33307 15.0024 3.79846 15.0024 5.56012V6.07137C15.0024 7.15089 14.7063 8.17418 14.1465 9.03125C14.108 9.09038 14.0682 9.14837 14.0267 9.20706C13.7989 9.52827 13.729 9.92284 13.8344 10.2908C13.9975 10.8599 14.1919 11.6883 14.1919 12.3999C14.1953 12.4708 14.2757 14.5699 13.267 15.6269C13.1027 15.7986 12.8554 15.8719 12.622 15.814C12.3865 15.7569 12.1994 15.5789 12.1346 15.349C11.6095 13.4907 10.6804 11.6096 9.92017 11.6096C9.15997 11.6096 8.2309 13.4908 7.70573 15.3487C7.64054 15.579 7.45373 15.7569 7.21834 15.814C7.16618 15.8261 7.11243 15.8323 7.05947 15.8323ZM9.92053 10.7753C11.4197 10.7753 12.4165 13.3611 12.8523 14.7893C13.302 14.0581 13.3647 12.8652 13.3457 12.4165C13.3452 11.7828 13.1683 11.0353 13.0196 10.5162C12.8451 9.90703 12.959 9.25617 13.3321 8.72998C13.3677 8.67999 13.402 8.62912 13.435 8.57913C13.9059 7.85789 14.1554 6.99002 14.1554 6.07084V5.55959C14.1554 4.19092 12.2306 4.16632 12.1477 4.16588C10.9695 4.16632 10.2865 5.02506 10.2581 5.06169C10.1781 5.16458 10.0531 5.22581 9.92142 5.22581C9.92062 5.22581 9.92017 5.22581 9.91928 5.22581C9.78676 5.22502 9.66183 5.16458 9.58218 5.06038C9.55467 5.02541 8.87118 4.16624 7.6926 4.16624C7.6117 4.16667 5.68569 4.19084 5.68569 5.55994V6.07119C5.68569 6.99037 5.9351 7.85824 6.40687 8.57983C6.43902 8.62903 6.4734 8.67937 6.50939 8.73024C6.88203 9.25608 6.99598 9.90685 6.82149 10.5161C6.67281 11.0348 6.49581 11.7823 6.49581 12.399C6.47679 12.8631 6.53904 14.0577 6.98875 14.7893C7.42453 13.3611 8.42137 10.7753 9.92053 10.7753Z" fill="#34A1D3"/>
<path d="M8.22644 6.24964C7.99265 6.24964 7.80298 6.06338 7.80298 5.83301C7.80298 5.60256 7.99274 5.41638 8.22644 5.41638C8.66052 5.41638 9.29954 4.87719 9.60066 4.53727C9.75435 4.36436 10.0216 4.34521 10.1978 4.49641C10.3744 4.64683 10.393 4.9097 10.2401 5.08348C10.1351 5.20262 9.18524 6.24964 8.22644 6.24964Z" fill="#34A1D3"/>
</svg>
