<svg width="74" height="70" viewBox="0 0 74 70" fill="none" xmlns="http://www.w3.org/2000/svg">
<path d="M36.6809 0C23.994 0 0 2.17896 0 10.4257V22.3404C0.00279852 23.3999 0.468474 24.3776 1.22296 24.9053V26.8088C1.22296 29.2761 2.86513 31.2765 4.89071 31.2765H6.33867C6.85472 33.0552 8.23271 34.2477 9.78142 34.2552H13.4497C14.0816 34.2511 14.7018 34.0459 15.2481 33.6593C15.9169 34.9547 17.0845 35.7421 18.3404 35.7448H23.2312C23.8631 35.7401 24.4832 35.5349 25.03 35.149C25.6983 36.4443 26.8659 37.2311 28.1219 37.2338H34.2355C35.1406 37.2304 36.0126 36.8159 36.6809 36.0721C37.3492 36.8159 38.2212 37.2304 39.1262 37.2338H45.2399C46.4959 37.2311 47.6634 36.4443 48.3317 35.149C48.8786 35.5349 49.4987 35.7401 50.1306 35.7448H55.0213C56.2773 35.7421 57.4448 34.9547 58.1137 33.6593C58.66 34.0459 59.2801 34.2511 59.912 34.2552H63.5803C65.129 34.2477 66.507 33.0552 67.0231 31.2765H68.4711C70.4966 31.2765 72.1388 29.2761 72.1388 26.8088V24.9053C72.8933 24.3776 73.359 23.3999 73.3618 22.3404V10.4257C73.3618 2.17896 49.3677 0 36.6809 0V0ZM36.6809 2.97868C58.8324 2.97868 70.9164 7.8936 70.9164 10.4257V19.2527C70.3226 18.5968 69.5457 18.2409 68.7436 18.258C67.9567 18.2607 67.1916 18.5743 66.5636 19.1518C65.6826 17.2585 64.0068 16.1233 62.2219 16.212C60.5495 16.216 58.9566 17.0785 57.8333 18.5873C56.8336 16.6019 55.0241 15.4388 53.1138 15.5547C51.1733 15.5547 49.3297 16.5883 48.0681 18.3848C46.9884 16.1063 44.9511 14.7577 42.7945 14.8934C40.3341 14.8961 38.0382 16.4001 36.6809 18.9002C35.3236 16.4001 33.0277 14.8961 30.5672 14.8934C28.4079 14.757 26.3683 16.1083 25.2892 18.3909C24.0276 16.5944 22.1839 15.5602 20.2429 15.5609C18.3354 15.445 16.5281 16.6053 15.5285 18.5873C14.4051 17.0819 12.8139 16.2215 11.1437 16.2174C9.35716 16.1281 7.67972 17.2626 6.79819 19.1579C6.1702 18.5804 5.40564 18.2668 4.61925 18.2641C3.81775 18.245 3.04032 18.5989 2.44535 19.2527V10.4257C2.44535 7.8936 14.5294 2.97868 36.6809 2.97868ZM3.66831 26.8088V22.8361C3.66831 22.5695 3.71477 21.2366 4.61925 21.2366C5.5534 21.4228 6.2077 22.4618 6.11367 23.6092V28.2978H4.89071C4.2157 28.2978 3.66831 27.631 3.66831 26.8088ZM13.4497 31.2765H9.78142C9.10641 31.2765 8.55902 30.6097 8.55902 29.7875V22.3404C8.51369 21.4909 8.77115 20.6592 9.26537 20.0572C9.75959 19.4552 10.4424 19.1415 11.1398 19.1961C13.0898 19.1988 14.6704 21.1242 14.6721 23.4995V29.7875C14.6721 30.6097 14.1247 31.2765 13.4497 31.2765ZM23.2312 32.7662H18.3404C17.6654 32.7662 17.1175 32.0994 17.1175 31.2765V22.3404C17.0772 21.3164 17.3934 20.319 17.9884 19.5942C18.5834 18.8695 19.4022 18.4843 20.2429 18.5334C22.5679 18.5368 24.4519 20.8324 24.4541 23.6645V31.2765C24.4541 32.0994 23.9067 32.7662 23.2312 32.7662ZM34.2355 34.2552H28.1219C27.4469 34.2552 26.8995 33.5884 26.8995 32.7662V22.3404C26.8519 21.1385 27.223 19.9679 27.9215 19.117C28.62 18.2661 29.5805 17.8141 30.5672 17.8721C33.2684 17.8721 35.4579 20.5399 35.4579 23.8301V32.7662C35.4579 33.5884 34.9105 34.2552 34.2355 34.2552ZM46.4623 32.7662C46.4623 33.5884 45.9149 34.2552 45.2399 34.2552H39.1262C38.4512 34.2552 37.9038 33.5884 37.9038 32.7662V23.8301C37.9038 20.5399 40.0934 17.8721 42.7945 17.8721C43.7813 17.8141 44.7418 18.2661 45.4403 19.117C46.1388 19.9679 46.5099 21.1385 46.4623 22.3404V32.7662ZM56.2443 31.2765C56.2443 32.0994 55.6963 32.7662 55.0213 32.7662H50.1306C49.455 32.7662 48.9077 32.0994 48.9077 31.2765V23.6645C48.9099 20.8324 50.7939 18.5368 53.1189 18.5334C53.9596 18.4843 54.7784 18.8695 55.3734 19.5942C55.9683 20.319 56.2846 21.3164 56.2443 22.3404V31.2765ZM64.8027 29.7875C64.8027 30.6097 64.2553 31.2765 63.5803 31.2765H59.912C59.237 31.2765 58.6896 30.6097 58.6896 29.7875V23.4995C58.6913 21.1242 60.2719 19.1988 62.2219 19.1961C62.9193 19.1415 63.6022 19.4552 64.0964 20.0572C64.5906 20.6592 64.8481 21.4909 64.8027 22.3404V29.7875ZM69.6935 26.8088C69.6935 27.631 69.1461 28.2978 68.4711 28.2978H67.2481V23.6092C67.1541 22.4618 67.8089 21.4221 68.7436 21.2366C69.6487 21.2366 69.6935 22.5695 69.6935 22.8361V26.8088Z" fill="#339ECF"/>
<path d="M1.2229 48.3789V59.8832C1.2229 67.8852 24.4171 70 36.6808 70C48.9445 70 72.1387 67.8852 72.1387 59.8832V48.3789C72.136 47.3037 71.6479 46.3179 70.8688 45.8127C70.8984 45.5665 70.9141 45.3177 70.9164 45.0682V42.4781C70.9141 40.0687 69.3106 38.1161 67.3326 38.114H67.1641C66.2008 38.1147 65.2784 38.5892 64.6062 39.4292C63.7157 38.352 62.5118 37.7479 61.2569 37.7479H59.79C58.3543 37.7513 56.997 38.5442 56.0959 39.9044C55.4271 39.4721 54.6826 39.2437 53.9259 39.2376H51.2309C49.5597 39.2424 48.0143 40.3175 47.1608 42.067C46.3156 41.2059 45.2505 40.7321 44.149 40.7266H40.2266C38.8687 40.7293 37.5775 41.4432 36.6808 42.6853C35.7842 41.4432 34.4929 40.7293 33.1351 40.7266H29.2222C28.1207 40.7321 27.0556 41.2059 26.211 42.067C25.3574 40.3175 23.8115 39.2424 22.1408 39.2376H19.4408C18.684 39.2437 17.9391 39.4721 17.2708 39.9044C16.368 38.5422 15.009 37.75 13.5717 37.7479H12.1047C10.8498 37.7472 9.64591 38.352 8.75542 39.4292C8.08321 38.5892 7.16082 38.1154 6.19757 38.114H6.02909C4.05109 38.1168 2.4481 40.0687 2.4453 42.4781V45.0634C2.44754 45.3129 2.46321 45.5618 2.49287 45.8086C1.71264 46.3144 1.22458 47.3023 1.2229 48.3789V48.3789ZM66.0256 42.4781C66.0268 41.7131 66.5361 41.0941 67.1641 41.0927H67.3326C67.9605 41.0941 68.4693 41.7131 68.471 42.4781V45.0634C68.471 45.332 68.4257 46.6649 67.5206 46.6649C66.5859 46.4794 65.9311 45.4397 66.0256 44.2923V42.4781ZM59.79 40.7266H61.2569C62.5398 40.7266 63.5803 41.9933 63.5803 43.5567V49.2979C63.6116 50.1283 63.3452 50.9342 62.8499 51.5062C62.3545 52.0782 61.6795 52.3591 61 52.2766H60.8293C60.0446 52.28 59.2851 51.9398 58.6896 51.3173V45.0395C58.6873 43.9289 58.4209 42.8428 57.9228 41.9122C58.3515 41.1732 59.0467 40.7321 59.79 40.7266V40.7266ZM48.9076 45.0457C48.9076 43.483 49.9481 42.2163 51.2309 42.2163H53.9209C55.2037 42.2163 56.2442 43.483 56.2442 45.0457V52.2363C56.2683 53.2379 55.9414 54.2046 55.3448 54.8946C54.7481 55.5846 53.9388 55.9323 53.1188 55.8511H52.9319C50.7126 55.8436 48.9154 53.6551 48.9076 50.9526V45.0395V45.0457ZM40.2266 43.7053H44.1395C45.4223 43.7053 46.4622 44.972 46.4622 46.5353V55.1646C46.4622 55.9363 46.4622 57.9946 42.7945 57.9946H42.584C41.3409 57.9926 40.1488 57.3892 39.2711 56.3168C38.393 55.2443 37.901 53.7908 37.9038 52.2766V46.5292C37.906 44.9686 38.9454 43.7053 40.2266 43.7053V43.7053ZM29.2222 43.7053H33.1351C34.4179 43.7053 35.4579 44.972 35.4579 46.5353V52.2766C35.4545 55.4237 33.3612 57.9735 30.7776 57.9762H30.5672C26.8994 57.9762 26.8994 55.9241 26.8994 55.1469V46.5292C26.9022 44.9686 27.941 43.7053 29.2222 43.7053V43.7053ZM22.1408 42.2163C23.4236 42.2163 24.4636 43.483 24.4636 45.0457V50.9587C24.4535 53.664 22.6507 55.8504 20.4298 55.8511H20.2428C19.4223 55.9329 18.6118 55.5839 18.0152 54.8925C17.4185 54.2012 17.0922 53.2331 17.1174 52.2302V45.0395C17.1174 43.4769 18.1579 42.2102 19.4408 42.2102L22.1408 42.2163ZM12.1142 40.7266H13.5818C14.3239 40.7307 15.0185 41.1698 15.4489 41.9061C14.9508 42.8367 14.6844 43.9228 14.6821 45.0341V51.3098C14.0877 51.9357 13.3282 52.2793 12.5424 52.2779H12.3711C11.6905 52.3645 11.0122 52.085 10.5146 51.5123C10.017 50.9396 9.74946 50.131 9.78136 49.2979V43.5492C9.78472 41.9893 10.8241 40.7266 12.1047 40.7266H12.1142ZM4.89065 42.4781C4.89121 41.7131 5.4011 41.0927 6.02909 41.0927H6.19757C6.82612 41.0927 7.33545 41.7131 7.33601 42.4781V44.2923C7.4306 45.4397 6.7763 46.4788 5.84215 46.6649C4.93711 46.6649 4.89065 45.3245 4.89065 45.0634V42.4781ZM5.84215 49.6436C6.3582 49.6415 6.86809 49.5031 7.33601 49.2386V49.2979C7.30914 50.9164 7.83415 52.477 8.78677 53.606C9.73938 54.7351 11.0334 55.3323 12.3616 55.2553H12.5323C13.3864 55.2505 14.2282 55.0153 14.9989 54.5673C15.7607 57.2631 17.9066 59.0078 20.2428 58.8298H20.4298C21.9863 58.8223 23.4869 58.1262 24.6533 56.8711C25.0972 58.7344 26.4875 60.9583 30.5672 60.9583H30.7776C33.144 60.9583 35.356 59.5266 36.6808 57.1376C38.0051 59.5279 40.217 60.9604 42.584 60.961H42.7945C46.8792 60.961 48.2645 58.7378 48.7083 56.8745C49.8748 58.1283 51.3759 58.823 52.9319 58.8298H53.1188C55.4545 59.0098 57.6004 57.2665 58.3627 54.5714C59.1329 55.02 59.9752 55.2553 60.8293 55.26H61C62.3282 55.3371 63.6223 54.7398 64.5749 53.6101C65.5275 52.4811 66.0525 50.9212 66.0256 49.3027V49.2338C66.4941 49.4997 67.004 49.6388 67.5206 49.6401C68.3221 49.6586 69.0995 49.304 69.6934 48.6488V59.8832C69.6934 62.3062 58.0414 67.0213 36.6808 67.0213C15.3202 67.0213 3.66826 62.3062 3.66826 59.8832L3.62628 48.5963C4.22404 49.2856 5.01938 49.6613 5.84215 49.6436V49.6436Z" fill="#339ECF"/>
</svg>
