<svg width="70" height="70" viewBox="0 0 70 70" fill="none" xmlns="http://www.w3.org/2000/svg">
<path d="M63.4514 5.3523C62.4326 2.23623 59.5678 0.0949855 56.2906 0C52.8885 0.10964 50.7673 3.05582 49.9157 5.77675C49.7067 6.5057 49.5623 7.25202 49.4853 8.00647C49.4364 8.3799 49.3876 8.75442 49.3154 9.13219C49.2942 9.24889 49.2649 9.35038 49.2416 9.46002C38.4794 9.42583 33.0875 19.1833 32.0975 21.204C31.5199 22.3965 31.2665 23.7198 31.3625 25.0415L29.3602 27.4172L28.0771 28.9332C23.2318 28.0598 13.7929 29.3017 0.846101 44.659C-0.43322 46.1771 -0.239992 48.4454 1.27815 49.7247C2.79629 51.0046 5.06455 50.8108 6.34387 49.2927C7.11027 48.383 7.85984 47.5433 8.58173 46.7525L8.59367 46.7432V46.734C20.7149 33.5701 27.4871 36.1895 27.5034 36.1906C29.0112 37.0487 30.9164 36.71 32.0356 35.3851L34.794 32.1122L35.6103 32.579C35.6288 32.5915 35.6488 32.6034 35.6689 32.6148L36.1666 32.8998L33.2264 36.3865C32.1251 37.6756 32.085 39.5623 33.1309 40.897C33.1738 40.9621 36.97 47.1889 26.0059 61.4128H25.9988V61.4242C25.3415 62.2758 24.6392 63.1513 23.8728 64.061C22.9729 65.1297 22.7737 66.6229 23.3615 67.8903C23.9493 69.1577 25.2178 69.9697 26.6149 69.9729C26.7186 69.9729 26.8222 69.9686 26.9264 69.9588C27.8768 69.8812 28.7567 69.4258 29.3695 68.6947C42.3071 53.3477 41.9374 43.8394 40.2543 39.2079L41.5374 37.6849L43.5202 35.3292C44.8472 35.1995 46.1157 34.7159 47.1926 33.9294C50.4346 31.5835 53.0057 28.4289 54.6498 24.7798C55.37 24.5986 56.0474 24.2772 56.6439 23.8343C57.6958 23.1065 58.6831 22.2896 59.595 21.3918C60.3359 20.7432 61.1973 20.2466 62.1303 19.9307C62.4798 19.7977 62.8462 19.687 63.2066 19.5806C63.9361 19.3765 64.6466 19.1084 65.3294 18.7795C67.8658 17.4801 70.4109 14.891 69.9441 11.5231C69.309 8.29632 66.7064 5.82235 63.4514 5.3523ZM46.6726 19.4009C47.001 19.6897 47.426 19.8455 47.8634 19.8384C48.6798 19.8384 49.8983 19.3722 51.8089 17.9246C50.8824 19.8911 49.6551 21.7012 48.1712 23.2894C47.0612 24.3418 45.3868 24.5269 44.0738 23.7421L43.1304 23.2009L43.0767 23.1684L40.0714 21.4374C41.1955 18.938 44.1883 16.2453 46.8615 14.2381C46.6981 14.5437 46.544 14.8552 46.4039 15.1711C46.0099 16.0412 45.0861 18.0646 46.6726 19.4009ZM45.7092 12.181C42.9101 14.2451 39.3842 17.3124 37.9475 20.48C36.818 20.2618 35.6494 20.5321 34.7299 21.223C36.1249 18.7816 39.6817 13.6736 45.7092 12.181ZM3.69893 48.2397C3.36458 48.2722 3.03186 48.1669 2.77729 47.9482C2.24537 47.4982 2.17753 46.7031 2.62586 46.1695C3.12033 45.5866 3.60774 45.0254 4.08972 44.482L6.01603 46.1087C5.53459 46.6499 5.04826 47.2084 4.55271 47.7962C4.33832 48.0519 4.0311 48.2114 3.69893 48.2397ZM7.59985 44.3909L5.66649 42.7614C11.2516 36.8414 15.9819 33.8095 19.7254 32.3374L20.6471 34.7099C17.2786 36.0251 12.8973 38.8008 7.59985 44.3909ZM35.0073 37.896L38.2205 34.0836L39.0884 34.5802C39.102 34.5883 39.1183 34.5905 39.1335 34.5986C39.1487 34.6068 39.1476 34.6117 39.1568 34.6166C39.6355 34.8337 40.1349 35.003 40.6473 35.1213L38.0208 38.2412C37.7358 38.5794 37.6669 39.0505 37.8427 39.4565C38.6298 41.4387 38.9104 43.5859 38.6591 45.7044L36.1373 45.1909C36.3816 43.2657 36.0065 41.3122 35.067 39.6139C35.0453 39.5808 35.0219 39.5488 34.997 39.5184C34.6051 39.0451 34.61 38.3585 35.0084 37.8911L35.0073 37.896ZM30.423 63.6295L28.4902 61.9968C33.1027 55.8309 35.1028 51.042 35.8236 47.5004L38.3171 48.0074C37.5057 51.9484 35.3085 57.1244 30.423 63.6295ZM26.7213 67.6466C26.3869 67.6802 26.0537 67.5744 25.7996 67.3546C25.2677 66.9052 25.1999 66.1095 25.6482 65.5764C26.1438 64.993 26.6127 64.41 27.0638 63.8488L28.9917 65.4749C28.5379 66.0427 28.0717 66.6164 27.5772 67.2031C27.3628 67.4593 27.054 67.6194 26.7213 67.6466ZM45.8313 32.0411C44.965 32.6691 43.9272 33.017 42.8574 33.0382H42.8493C41.9429 33.0604 41.0418 32.8878 40.2076 32.5323L36.8674 30.6206L36.8163 30.5892L35.1137 29.6105C35.0751 29.5899 35.0317 29.5888 34.997 29.5709C34.9253 29.5384 34.8499 29.5134 34.7728 29.4966C34.7033 29.4825 34.6328 29.4743 34.5617 29.4732C34.4835 29.4711 34.4053 29.477 34.3288 29.4906C34.2582 29.5031 34.1893 29.5226 34.1231 29.5487C34.0525 29.5747 33.9841 29.6078 33.9206 29.648C33.856 29.6887 33.7958 29.7365 33.7421 29.7902C33.7062 29.8146 33.6715 29.8418 33.6395 29.8705L30.2569 33.8887C29.8629 34.3533 29.1936 34.4722 28.6639 34.1709C28.6297 34.1509 28.5944 34.1329 28.558 34.1172C26.7251 33.4762 24.7358 33.4349 22.8779 34.0005L21.9454 31.6014C23.9911 30.9952 26.1557 30.9105 28.2432 31.3545C28.6725 31.4587 29.1241 31.3111 29.4091 30.9729L35.8388 23.3453C36.3832 22.7037 37.3076 22.5409 38.0387 22.9572L41.8707 25.1544L41.9255 25.188L42.9171 25.7552C45.1398 27.0622 47.9611 26.7284 49.818 24.9389C51.4099 23.2584 52.7365 21.3457 53.7531 19.2658C53.0171 26.6133 46.684 31.4256 45.8313 32.0411ZM64.2656 16.6941C63.7022 16.9601 63.1171 17.1772 62.5162 17.3427C62.1113 17.4687 61.7069 17.5946 61.3161 17.7406C60.0938 18.1629 58.9681 18.824 58.003 19.6848C57.2779 20.3812 56.5082 21.0304 55.6995 21.6274C56.2841 19.1578 56.29 16.5867 55.7169 14.1143C55.5991 13.6052 55.1567 13.2361 54.6346 13.2117C54.2101 13.2046 53.8139 13.4234 53.593 13.7854C53.0556 13.9667 52.5617 14.2565 52.1411 14.637C50.973 15.8029 49.6096 16.7555 48.1126 17.4513C48.1663 16.9851 48.3096 16.534 48.5349 16.1226C49.0228 15.0853 49.5987 14.091 50.2555 13.1509C50.9383 12.0561 51.3985 10.837 51.6091 9.56369C51.6884 9.14739 51.7443 8.72836 51.7991 8.30989C51.8632 7.68895 51.9799 7.07399 52.1492 6.47313C52.7321 4.60707 54.1889 2.40178 56.3758 2.33176C58.8329 2.46203 60.8911 4.23636 61.3829 6.64682C61.3829 6.66202 61.3954 6.67233 61.3975 6.68753C61.4003 6.70273 61.3975 6.72173 61.3975 6.73909C61.7449 8.09386 61.7308 9.51647 61.3568 10.8642C61.1072 11.458 61.3861 12.1419 61.9799 12.3921C62.5737 12.6418 63.2576 12.3628 63.5073 11.769C63.9567 10.519 64.1011 9.17941 63.9296 7.8621C65.7984 8.41138 67.2193 9.93387 67.6384 11.8358C67.9336 13.9944 66.0068 15.8034 64.2656 16.6941Z" fill="#339ECF"/>
</svg>
