<svg width="70" height="70" viewBox="0 0 70 70" fill="none" xmlns="http://www.w3.org/2000/svg">
<g clip-path="url(#clip0)">
<path d="M23.5224 63.5845C22.9404 63.5845 22.3861 63.3466 21.973 62.9043C18.0833 58.7346 18.3985 50.351 18.4135 49.9963C18.4123 47.1915 19.1801 43.8502 19.8239 41.5497C20.2906 39.8812 19.9826 38.0952 18.9781 36.6462C18.8147 36.4105 18.6595 36.1748 18.5092 35.9404C16.3229 32.5149 15.1666 28.421 15.1666 24.101V22.0058C15.1666 15.2124 22.2997 13.4167 26.0726 13.4167C30.4932 13.4167 33.5496 15.9204 34.9999 17.444C36.4511 15.9204 39.5068 13.4167 43.9271 13.4167C47.7002 13.4167 54.8331 15.2121 54.8331 22.0058V24.101C54.8331 28.4213 53.6768 32.5152 51.4896 35.9391C51.3402 36.1736 51.1828 36.4093 51.0207 36.6437C50.015 38.094 49.707 39.88 50.1736 41.5485C50.8177 43.8492 51.5853 47.1905 51.5853 50.0452C51.5993 50.3498 51.9142 58.7334 48.0257 62.903C47.4901 63.4758 46.7145 63.7058 45.9548 63.5191C45.1941 63.3323 44.5909 62.7456 44.382 61.9884C42.1969 54.0724 38.4472 46.0832 34.9996 46.0832C31.552 46.0832 27.8025 54.0724 25.6162 61.9896C25.4074 62.7468 24.8041 63.3336 24.0435 63.5203C23.87 63.5633 23.6949 63.5845 23.5224 63.5845ZM34.9999 43.75C40.9907 43.75 45.0133 55.6056 46.5452 61.0575C49.5355 57.4886 49.2577 50.1712 49.2543 50.0954C49.2531 47.4552 48.5322 44.3368 47.9278 42.1773C47.2722 39.8382 47.7015 37.3367 49.1027 35.315C49.2486 35.1049 49.3886 34.8938 49.5227 34.6828C51.4711 31.6354 52.4999 27.9755 52.4999 24.101V22.0058C52.4999 15.8213 44.2772 15.7502 43.9271 15.7502C38.9139 15.7502 35.9856 19.8743 35.9566 19.9164C35.5202 20.543 34.4773 20.543 34.0409 19.9164C34.0153 19.878 31.0484 15.7502 26.0726 15.7502C25.7237 15.7514 17.4998 15.8471 17.4998 22.0058V24.101C17.4998 27.9755 18.5289 31.6354 20.4761 34.6828C20.6114 34.8938 20.7513 35.1052 20.8985 35.3175C22.2985 37.3382 22.7266 39.8394 22.0722 42.1787C21.4677 44.3382 20.7469 47.4567 20.7469 50.0467C20.7435 50.1704 20.4729 57.4969 23.4548 61.0577C24.9864 55.6056 29.0092 43.75 34.9999 43.75Z" fill="#339ECF"/>
<path d="M28.0001 25.0834C27.356 25.0834 26.8335 24.5606 26.8335 23.9168C26.8335 23.2727 27.3563 22.7502 28.0001 22.7502C30.6905 22.7502 33.263 19.7589 34.0284 18.6051C34.3841 18.0686 35.1086 17.9202 35.6454 18.2772C36.182 18.6329 36.3291 19.3575 35.9733 19.8943C35.8319 20.1063 32.48 25.0834 28.0001 25.0834Z" fill="#339ECF"/>
<path d="M37.3321 12.2499H32.6677C30.7368 12.2499 29.1665 10.6796 29.1665 8.7487V4.08431C29.1665 2.15336 30.7368 0.583069 32.6677 0.583069H37.3321C39.2631 0.583069 40.8334 2.15336 40.8334 4.08431V8.7487C40.8334 10.6796 39.2631 12.2499 37.3321 12.2499ZM32.668 2.91674C32.0239 2.91674 31.5002 3.4405 31.5002 4.08456V8.74894C31.5002 9.393 32.0239 9.91676 32.668 9.91676H37.3324C37.9764 9.91676 38.5002 9.393 38.5002 8.74894V4.08456C38.5002 3.4405 37.9764 2.91674 37.3324 2.91674H32.668Z" fill="#339ECF"/>
<path d="M34.9998 20.4165C34.3558 20.4165 33.8333 19.8938 33.8333 19.25V11.0833C33.8333 10.4393 34.356 9.91675 34.9998 9.91675C35.6439 9.91675 36.1664 10.4395 36.1664 11.0833V19.25C36.1667 19.894 35.6439 20.4165 34.9998 20.4165Z" fill="#339ECF"/>
<path d="M30.3333 9.91672H1.16659C0.522775 9.91672 0 9.39394 0 8.74988V4.08328C0 3.43922 0.522775 2.91669 1.16659 2.91669H30.3333C30.9773 2.91669 31.4999 3.43946 31.4999 4.08328V8.74988C31.4999 9.39394 30.9773 9.91672 30.3333 9.91672ZM2.33342 7.58329H29.1667V5.24987H2.33342V7.58329Z" fill="#339ECF"/>
<path d="M39.6667 29.75C39.0227 29.75 38.5001 29.2272 38.5001 28.5834V27.4168C38.5001 26.7727 39.0229 26.2502 39.6667 26.2502C40.3108 26.2502 40.8333 26.773 40.8333 27.4168V28.5834C40.8333 29.2272 40.3105 29.75 39.6667 29.75Z" fill="#339ECF"/>
<path d="M46.6667 29.75C46.0226 29.75 45.5001 29.2272 45.5001 28.5834V27.4168C45.5001 26.7727 46.0229 26.2502 46.6667 26.2502C47.3108 26.2502 47.8333 26.773 47.8333 27.4168V28.5834C47.8333 29.2272 47.3105 29.75 46.6667 29.75Z" fill="#339ECF"/>
<path d="M43.1667 26.25C42.5227 26.25 42.0001 25.7272 42.0001 25.0834V23.9168C42.0001 23.2727 42.5229 22.7502 43.1667 22.7502C43.8105 22.7502 44.3333 23.273 44.3333 23.9168V25.0834C44.3333 25.7272 43.8105 26.25 43.1667 26.25Z" fill="#339ECF"/>
<path d="M43.1667 33.25C42.5227 33.25 42.0001 32.7272 42.0001 32.0834V30.9168C42.0001 30.2728 42.5229 29.7502 43.1667 29.7502C43.8105 29.7502 44.3333 30.273 44.3333 30.9168V32.0834C44.3333 32.7272 43.8105 33.25 43.1667 33.25Z" fill="#339ECF"/>
<path d="M26.8332 37.9166C26.1892 37.9166 25.6666 37.3938 25.6666 36.75V35.5834C25.6666 34.9393 26.1894 34.4168 26.8332 34.4168C27.4773 34.4168 27.9998 34.9396 27.9998 35.5834V36.75C28.0001 37.394 27.4773 37.9166 26.8332 37.9166Z" fill="#339ECF"/>
<path d="M33.8333 37.9166C33.1893 37.9166 32.6667 37.3938 32.6667 36.75V35.5834C32.6667 34.9393 33.1895 34.4168 33.8333 34.4168C34.4774 34.4168 34.9999 34.9396 34.9999 35.5834V36.75C34.9999 37.394 34.4774 37.9166 33.8333 37.9166Z" fill="#339ECF"/>
<path d="M30.3332 34.4166C29.6892 34.4166 29.1666 33.8938 29.1666 33.25V32.0834C29.1666 31.4393 29.6894 30.9168 30.3332 30.9168C30.977 30.9168 31.4998 31.4396 31.4998 32.0834V33.25C31.4998 33.894 30.9773 34.4166 30.3332 34.4166Z" fill="#339ECF"/>
<path d="M30.3332 41.4166C29.6892 41.4166 29.1666 40.8939 29.1666 40.25V39.0835C29.1666 38.4394 29.6894 37.9169 30.3332 37.9169C30.977 37.9169 31.4998 38.4396 31.4998 39.0835V40.25C31.4998 40.8941 30.9773 41.4166 30.3332 41.4166Z" fill="#339ECF"/>
<path d="M68.8332 69.4167H1.16659C0.522529 69.4167 0 68.8939 0 68.2501V54.2501C0 53.606 0.522775 53.0835 1.16659 53.0835H8.90736C11.0459 53.0835 13.0396 52.1257 14.3755 50.4561L19.2556 44.3555C19.5917 43.9343 20.1737 43.7977 20.6613 44.0275C21.1489 44.2561 21.4173 44.7894 21.3088 45.3179C20.9354 47.1403 20.7464 48.7315 20.7464 50.0464C20.743 50.1702 20.4734 57.4979 23.4543 61.0587C24.9862 55.6056 29.0088 43.75 34.9996 43.75C40.9881 43.75 45.0131 55.6056 46.545 61.0574C49.5353 57.4886 49.2575 50.1712 49.2541 50.0954C49.2528 48.6161 49.0324 46.8731 48.596 44.863C48.4806 44.3299 48.7488 43.7884 49.2435 43.5574C49.7392 43.3276 50.3262 43.471 50.6598 43.9028L55.6378 50.3567C56.9537 52.0635 59.0269 53.0832 61.1817 53.0832H68.8327C69.4767 53.0832 69.9993 53.606 69.9993 54.2498V68.2498C70 68.8939 69.4772 69.4167 68.8332 69.4167ZM2.33342 67.0833H67.6668V55.4166H61.1824C58.309 55.4166 55.5451 54.0574 53.7905 51.7826L51.5481 48.874C51.5737 49.2811 51.5877 49.672 51.5877 50.0452C51.6018 50.3498 51.9166 58.7334 48.0282 62.903C47.4997 63.4689 46.7064 63.7058 45.9563 63.519C45.1956 63.3323 44.5936 62.7456 44.3847 61.9884C42.196 54.0724 38.4465 46.0832 35.0001 46.0832C31.5525 46.0832 27.803 54.0724 25.6167 61.9896C25.4079 62.7468 24.8047 63.3336 24.044 63.5203C23.2821 63.7058 22.5086 63.4772 21.9731 62.9043C18.0846 58.7346 18.3995 50.351 18.4147 49.9963C18.4147 49.7138 18.4216 49.4189 18.4381 49.1118L16.1969 51.9129C14.4153 54.1389 11.7589 55.4164 8.9076 55.4164H2.33342V67.0833Z" fill="#339ECF"/>
</g>
<defs>
<clipPath id="clip0">
<rect width="70" height="70" fill="white"/>
</clipPath>
</defs>
</svg>
