<svg width="75" height="75" viewBox="0 0 75 75" fill="none" xmlns="http://www.w3.org/2000/svg">
<g clip-path="url(#clip0)">
<path d="M3.75023 35H4.99992V43.7502C5.01137 45.2225 5.87997 46.5528 7.22351 47.1548C7.22351 47.196 7.23152 47.2378 7.23724 47.2801L9.66854 61.8662C9.96552 63.6766 11.5328 65.0047 13.3673 65.0002H18.75V67.5001H13.7501C11.6787 67.5001 9.99985 69.179 9.99985 71.2498C9.99985 73.3212 11.6787 75 13.7501 75H31.2498C33.3212 75 35 73.3212 35 71.2498C35 69.179 33.3212 67.5001 31.2498 67.5001H26.2499V65.0002H31.6326C33.4671 65.0047 35.0344 63.6766 35.3313 61.8662L37.7626 47.2773C37.7626 47.2378 37.7701 47.196 37.7764 47.1525C39.1193 46.5506 39.9879 45.2213 40 43.7502V35H41.2502C43.321 35 44.9999 33.3212 44.9999 31.2498C44.9999 29.179 43.321 27.5002 41.2502 27.5002H36.2497V22.5002C36.2457 18.3598 32.8903 15.0043 28.7498 14.9998H26.2499V12.4649C27.2633 12.3837 28.1994 11.8904 28.8391 11.1008C29.4794 10.3111 29.7684 9.29317 29.6385 8.28495L29.0136 3.28503C28.779 1.4082 27.1837 0 25.2926 0H19.7073C17.8162 0 16.2209 1.4082 15.9863 3.28503L15.3614 8.28495C15.2315 9.29317 15.5205 10.3111 16.1608 11.1008C16.8011 11.8904 17.7366 12.3837 18.75 12.4649V14.9998H16.25C12.1096 15.0043 8.75416 18.3598 8.75015 22.5002V27.5002H3.75023C1.67885 27.5002 0 29.179 0 31.2498C0 33.3212 1.67885 35 3.75023 35V35ZM8.75015 35C9.04541 34.9966 9.33895 34.9588 9.62505 34.8862C10.3317 35.7468 11.3863 36.2469 12.4998 36.2497H17.4997V40H13.4027C10.7986 39.9965 8.46691 41.6119 7.55653 44.0512C7.52449 43.9539 7.50561 43.8526 7.49989 43.7502V35H8.75015ZM25.0002 40H20.0003V37.5H25.0002V40ZM32.5001 71.2498C32.5001 71.9404 31.9405 72.5 31.2498 72.5H13.7501C13.0594 72.5 12.4998 71.9404 12.4998 71.2498C12.4998 70.5597 13.0594 70.0001 13.7501 70.0001H31.2498C31.9405 70.0001 32.5001 70.5597 32.5001 71.2498ZM23.7499 67.5001H21.25V65.0002H23.7499V67.5001ZM35.2964 46.8664L32.8651 61.4565C32.7644 62.0584 32.2432 62.4996 31.6326 62.5002H13.3673C12.7567 62.4996 12.2355 62.0579 12.1347 61.4548L9.70402 46.8664C9.52263 45.7792 9.82876 44.6669 10.5412 43.8263C11.2541 42.9852 12.3001 42.4999 13.4027 42.4999H31.5977C32.6998 42.4999 33.7463 42.9852 34.4587 43.8263C35.1711 44.6669 35.4773 45.7792 35.2964 46.8664ZM37.5 43.7502C37.4949 43.8526 37.4754 43.9539 37.4439 44.0512C36.533 41.6119 34.2012 39.9965 31.5977 40H27.5002V36.2497H32.5001C33.6136 36.2469 34.6682 35.7468 35.3748 34.8862C35.6609 34.9588 35.955 34.9966 36.2497 35H37.5V43.7502ZM41.2502 30.0001C41.9403 30.0001 42.4999 30.5597 42.4999 31.2498C42.4999 31.9405 41.9403 32.5001 41.2502 32.5001H36.2497C35.5597 32.5001 35 31.9405 35 31.2498C35 30.5597 35.5597 30.0001 36.2497 30.0001H41.2502ZM17.8413 8.59509L18.4662 3.59516C18.5446 2.96917 19.0767 2.49939 19.7073 2.49996H25.2926C25.9232 2.49939 26.4553 2.96917 26.5337 3.59516L27.1585 8.59509C27.2032 8.951 27.0927 9.30862 26.8553 9.57756C26.6178 9.8465 26.2762 10.0004 25.9174 9.99985H19.0825C18.7237 10.0004 18.3821 9.8465 18.1446 9.57756C17.9071 9.30862 17.7967 8.951 17.8413 8.59509ZM21.25 12.4998H23.7499V14.9998H21.25V12.4998ZM11.2501 22.5002C11.2501 19.7388 13.4886 17.4997 16.25 17.4997H28.7498C31.5113 17.4997 33.7498 19.7388 33.7498 22.5002V28.4752C32.2964 29.7546 32.0778 31.9405 33.2502 33.4826C33.0368 33.6531 32.773 33.7469 32.5001 33.7498H12.4998C12.2274 33.7469 11.9631 33.6531 11.7502 33.4826C12.9221 31.9405 12.7041 29.7546 11.2501 28.4752V22.5002ZM3.75023 30.0001H8.75015C9.44023 30.0001 9.99985 30.5597 9.99985 31.2498C9.99985 31.9405 9.44023 32.5001 8.75015 32.5001H3.75023C3.05958 32.5001 2.49996 31.9405 2.49996 31.2498C2.49996 30.5597 3.05958 30.0001 3.75023 30.0001Z" fill="#339ECF"/>
<path d="M67.5003 46.2502H55C53.6192 46.2502 52.5 47.3695 52.5 48.7502V51.2502C52.5 52.6309 53.6192 53.7501 55 53.7501H67.5003C68.8811 53.7501 70.0003 52.6309 70.0003 51.2502V48.7502C70.0003 47.3695 68.8811 46.2502 67.5003 46.2502ZM55 51.2502V48.7502H67.5003V51.2502H55Z" fill="#339ECF"/>
<path d="M67.5003 56.25H55C53.6192 56.25 52.5 57.3692 52.5 58.75V61.2499C52.5 62.6307 53.6192 63.7499 55 63.7499H67.5003C68.8811 63.7499 70.0003 62.6307 70.0003 61.2499V58.75C70.0003 57.3692 68.8811 56.25 67.5003 56.25ZM55 61.2499V58.75H67.5003V61.2499H55Z" fill="#339ECF"/>
<path d="M37.4998 6.25019H41.476L41.8508 8.12473L40.9759 8.36277C40.1056 8.59051 39.3852 9.19933 39.0144 10.0193C38.6436 10.8387 38.6625 11.7823 39.0659 12.5862L43.3775 21.3112C43.7757 22.1186 44.515 22.7039 45.3916 22.9065C46.2688 23.1096 47.1901 22.9076 47.9025 22.3577L48.8208 21.6436L49.4245 22.55L46.615 25.3613C46.29 25.6748 46.1595 26.14 46.274 26.5766C46.3884 27.0138 46.7294 27.3554 47.1666 27.4698C47.6038 27.5843 48.0684 27.4538 48.3825 27.1288L51.917 23.5926C52.3382 23.1714 52.4034 22.5117 52.0733 22.0161L50.736 20.0123C52.071 18.5131 52.638 16.4806 52.2724 14.5065L58.5472 7.49989H67.4999V41.2502H64.9999V27.5002C64.9999 25.4288 63.3211 23.7499 61.2497 23.7499H57.5C55.4287 23.7499 53.7498 25.4288 53.7498 27.5002C53.7498 28.1902 54.3094 28.7498 54.9995 28.7498C55.6902 28.7498 56.2498 28.1902 56.2498 27.5002C56.2498 26.8095 56.8094 26.2499 57.5 26.2499H61.2497C61.9403 26.2499 62.5 26.8095 62.5 27.5002V41.2502H58.6324C59.0925 40.626 59.4284 39.9187 59.6212 39.1674L60.8245 34.3552C61.0111 33.6084 60.8429 32.8171 60.3691 32.2105C59.8953 31.604 59.168 31.2498 58.3984 31.2498H49.1012C48.331 31.2504 47.6043 31.6046 47.1306 32.2117C46.6573 32.8182 46.4891 33.6096 46.6762 34.3563L47.8784 39.1674C48.1239 40.1539 48.6149 41.0625 49.3049 41.8087C48.1874 42.4845 47.5031 43.6941 47.4996 44.9999V71.2498C47.4996 73.3212 49.1785 75 51.2499 75H71.2495C73.3209 75 74.9998 73.3212 74.9998 71.2498V44.9999C74.9981 44.4649 74.8808 43.9367 74.6559 43.4515C74.8756 43.222 74.9986 42.9171 74.9998 42.6001V3.75023C74.9998 1.67885 73.3209 0 71.2495 0H56.8746C55.8115 0.00343323 54.7998 0.457764 54.0908 1.25027L47.8836 8.16021C46.7666 7.61776 45.5175 7.40719 44.285 7.55367L43.7248 4.74987C43.6058 4.16794 43.0936 3.74966 42.4997 3.75023H37.4998C36.8097 3.75023 36.2495 4.30985 36.2495 4.99992C36.2495 5.69057 36.8097 6.25019 37.4998 6.25019V6.25019ZM69.9998 7.49989H71.2495C71.6764 7.49588 72.0987 7.4192 72.4998 7.27386V41.3498H72.081C71.8086 41.2857 71.5299 41.2519 71.2495 41.2502H69.9998V7.49989ZM49.1012 33.7498H58.3995L57.1973 38.5614C56.8025 40.143 55.38 41.2525 53.7498 41.2502C52.1202 41.2514 50.6994 40.1424 50.3046 38.5614L49.1012 33.7498ZM72.4998 71.2498C72.4998 71.9404 71.9402 72.5 71.2495 72.5H51.2499C50.5592 72.5 49.9996 71.9404 49.9996 71.2498V44.9999C49.9996 44.3098 50.5592 43.7502 51.2499 43.7502H68.2598C68.4148 43.816 68.5814 43.8498 68.7496 43.8498H71.7388C72.2 44.046 72.4998 44.4986 72.4998 44.9999V71.2498ZM71.2495 2.49996C71.9402 2.49996 72.4998 3.05958 72.4998 3.75023C72.5004 4.08669 72.3619 4.40884 72.117 4.64001C71.8893 4.87347 71.5757 5.00336 71.2495 4.99992H60.4074C60.6969 4.1914 60.6947 3.30677 60.4011 2.49996H71.2495ZM55.9488 2.91481C56.1845 2.65217 56.521 2.50111 56.8746 2.49996C57.3661 2.50225 57.8107 2.79236 58.0104 3.24097C58.2107 3.69015 58.1289 4.21429 57.8022 4.58107L51.2613 11.8876L50.8859 11.1214C50.7595 10.8679 50.6176 10.623 50.4608 10.3872C50.4087 10.31 50.3486 10.239 50.2937 10.1624C50.1833 10.0113 50.0723 9.86137 49.9509 9.72118C49.9338 9.70116 49.9183 9.6777 49.9012 9.65767L55.9488 2.91481ZM45.046 9.99985C45.8992 10.0004 46.7306 10.2705 47.4212 10.7712C47.9437 11.1471 48.3642 11.6478 48.6446 12.2274L49.4857 13.9326C49.5824 14.1203 49.6614 14.3166 49.7221 14.5185C50.0602 15.6309 49.8977 16.8348 49.2775 17.8173L48.5433 16.7175C48.1554 16.1568 47.3898 16.0103 46.8221 16.3885C46.2551 16.7667 46.0954 17.5301 46.4634 18.104L47.4361 19.5637L46.3787 20.3848C46.2608 20.4769 46.1075 20.5101 45.9621 20.4752C45.8151 20.442 45.6903 20.3442 45.6234 20.2085L41.3021 11.4727C41.2363 11.344 41.2317 11.1923 41.2912 11.0601C41.3547 10.9205 41.4783 10.8175 41.6271 10.7815L42.3423 10.5875L42.5249 11.495C42.6416 12.0792 43.1543 12.4998 43.75 12.4998C43.8335 12.5004 43.9176 12.4924 44 12.4752C44.3245 12.4088 44.61 12.216 44.7931 11.9396C44.9756 11.6627 45.0414 11.3251 44.9751 11.0001L44.7811 10.0302C44.8749 10.029 44.9573 9.99985 45.046 9.99985Z" fill="#339ECF"/>
</g>
<defs>
<clipPath id="clip0">
<rect width="75" height="75" fill="white"/>
</clipPath>
</defs>
</svg>
