<svg width="30" height="32" viewBox="0 0 30 32" fill="none" xmlns="http://www.w3.org/2000/svg">
<path d="M15 31.5068C23.2843 31.5068 30 24.5715 30 16.0163C30 7.4612 23.2843 0.525879 15 0.525879C6.71573 0.525879 0 7.4612 0 16.0163C0 24.5715 6.71573 31.5068 15 31.5068Z" fill="white"/>
<path fill-rule="evenodd" clip-rule="evenodd" d="M14.4334 22.8103H15.6107C15.6107 22.8103 15.9664 22.77 16.1479 22.5679C16.3151 22.3823 16.3097 22.0338 16.3097 22.0338C16.3097 22.0338 16.2867 20.4024 17.0199 20.1622C17.7426 19.9256 18.6707 21.7389 19.6545 22.4362C20.3984 22.9639 20.9636 22.8481 20.9636 22.8481L23.5939 22.8103C23.5939 22.8103 24.9699 22.7228 24.3175 21.6056C24.264 21.5142 23.9375 20.7791 22.3618 19.2686C20.7125 17.6878 20.9334 17.9435 22.9201 15.2089C24.13 13.5436 24.6137 12.5269 24.4627 12.0914C24.3185 11.6767 23.4287 11.7863 23.4287 11.7863L20.4671 11.8053C20.4671 11.8053 20.2475 11.7744 20.0847 11.8749C19.9256 11.9735 19.8232 12.2032 19.8232 12.2032C19.8232 12.2032 19.3545 13.492 18.7293 14.5879C17.4105 16.9005 16.8833 17.0226 16.6677 16.879C16.1664 16.5443 16.2915 15.5345 16.2915 14.8171C16.2915 12.576 16.6207 11.6416 15.6506 11.3997C15.3287 11.3193 15.0917 11.2663 14.2685 11.2578C13.2117 11.2464 12.3173 11.2611 11.8109 11.5173C11.474 11.6877 11.2141 12.0674 11.3724 12.0892C11.5681 12.1163 12.0114 12.2126 12.2465 12.5432C12.5499 12.9695 12.5393 13.9271 12.5393 13.9271C12.5393 13.9271 12.7136 16.5653 12.132 16.8931C11.7328 17.1178 11.1852 16.6589 10.0095 14.5609C9.40705 13.4862 8.95223 12.2982 8.95223 12.2982C8.95223 12.2982 8.86452 12.0762 8.7081 11.9575C8.51825 11.8136 8.253 11.7678 8.253 11.7678L5.43873 11.7868C5.43873 11.7868 5.01626 11.799 4.86117 11.9887C4.7232 12.1574 4.85021 12.5064 4.85021 12.5064C4.85021 12.5064 7.0535 17.8297 9.54824 20.5123C11.8358 22.9719 14.4334 22.8103 14.4334 22.8103Z" fill="#38ACE1"/>
</svg>
