<svg width="71" height="79" viewBox="0 0 71 79" fill="none" xmlns="http://www.w3.org/2000/svg">
<path fill-rule="evenodd" clip-rule="evenodd" d="M35.1707 78.1495C48.2651 78.1495 59.752 68.3827 62.823 54.7913C66.9791 54.7077 70.3347 50.8413 70.3347 46.1043C70.3347 41.314 66.902 37.4134 62.679 37.4134H62.0226C58.0273 25.1336 47.3341 16.9446 35.1674 16.9446C23.0006 16.9446 12.3074 25.1336 8.3121 37.4134H7.65236C3.43603 37.4134 0 41.3102 0 46.1043C0 50.8413 3.35565 54.7039 7.5117 54.7913C10.586 68.3827 22.073 78.1495 35.1707 78.1495ZM62.679 39.8351C65.7232 39.8351 68.2014 42.6522 68.2014 46.1043C68.2014 49.5601 65.7232 52.3734 62.679 52.3734H61.9791C61.4801 52.3734 61.0447 52.7688 60.9376 53.3238C58.4091 66.3069 47.5719 75.7315 35.1674 75.7315C22.7628 75.7315 11.9223 66.3069 9.39381 53.3238C9.28665 52.7688 8.85128 52.3734 8.35229 52.3734H7.65236C4.60816 52.3734 2.12993 49.5639 2.12993 46.1043C2.12993 42.6484 4.60481 39.8351 7.65236 39.8351H9.06227C9.52107 39.8351 9.9263 39.5044 10.0737 39.0101C13.5599 27.2626 23.6436 19.3663 35.164 19.3663C46.6844 19.3663 56.7681 27.2626 60.2544 39.0101C60.3984 39.5044 60.8069 39.8351 61.2658 39.8351H62.6757H62.679Z" fill="#339FD1"/>
<path d="M26.2424 50.3471C27.6647 50.3471 28.8177 49.0382 28.8177 47.4236C28.8177 45.8089 27.6647 44.5 26.2424 44.5C24.8201 44.5 23.6671 45.8089 23.6671 47.4236C23.6671 49.0382 24.8201 50.3471 26.2424 50.3471Z" fill="#339FD1"/>
<path d="M43.1177 50.3471C44.5401 50.3471 45.6931 49.0382 45.6931 47.4236C45.6931 45.8089 44.5401 44.5 43.1177 44.5C41.6954 44.5 40.5424 45.8089 40.5424 47.4236C40.5424 49.0382 41.6954 50.3471 43.1177 50.3471Z" fill="#339FD1"/>
<path fill-rule="evenodd" clip-rule="evenodd" d="M35.2276 66.9077C37.8331 66.9077 42.3844 64.4289 44.7052 62.8055L45.1238 62.5128C45.6228 62.1592 45.7802 61.4179 45.4721 60.8476C45.1607 60.2773 44.5043 60.1063 44.0053 60.4522L43.5866 60.745C39.1493 65.0296 32.9403 66.2195 28.61 62.2315L26.4566 60.4294C25.9576 60.0834 25.2979 60.2545 24.9898 60.8248C24.6817 61.3951 24.8391 62.1402 25.3381 62.49L25.7567 62.7827C28.0809 64.4061 32.6188 66.9077 35.2243 66.9077H35.2276Z" fill="#339FD1"/>
<path fill-rule="evenodd" clip-rule="evenodd" d="M32.8265 19.5222C38.0274 19.5222 42.2605 14.7205 42.2605 8.81255C42.2605 3.95386 38.7809 0 34.501 0C30.9611 0 28.081 3.26954 28.081 7.28803C28.081 10.6374 30.4822 13.3633 33.4326 13.3633C35.9075 13.3633 37.9236 11.0746 37.9236 8.26509C37.9236 7.59597 37.4447 7.05612 36.8586 7.05612C36.2692 7.05612 35.7937 7.59978 35.7937 8.26509C35.7937 9.74399 34.7354 10.9454 33.436 10.9454C31.661 10.9454 30.2143 9.30678 30.2143 7.28803C30.2143 4.60397 32.1399 2.41794 34.5043 2.41794C37.6088 2.41794 40.1339 5.28449 40.1339 8.80874C40.1339 13.3785 36.8586 17.0966 32.8332 17.0966C32.2437 17.0966 31.7682 17.6403 31.7682 18.3056C31.7682 18.9747 32.2471 19.5146 32.8332 19.5146L32.8265 19.5222Z" fill="#339FD1"/>
</svg>
