<svg width="70" height="70" viewBox="0 0 70 70" fill="none" xmlns="http://www.w3.org/2000/svg">
<g clip-path="url(#clip0)">
<path d="M24.5002 13.9998C23.8561 13.9998 23.3336 13.477 23.3336 12.8332C23.3336 12.1892 23.8564 11.6667 24.5002 11.6667C27.8729 11.6667 32.5756 6.916 34.104 5.08571C34.5171 4.59099 35.2519 4.52456 35.7466 4.93761C36.2414 5.35066 36.3078 6.0845 35.896 6.5802C35.2637 7.33938 29.5669 13.9998 24.5002 13.9998Z" fill="#34A1D4"/>
<path d="M48.9998 38.4992H21.0002C20.3561 38.4992 19.8336 37.9764 19.8336 37.3326V18.6663C19.8336 18.0223 20.3564 17.4998 21.0002 17.4998H48.9998C49.6438 17.4998 50.1664 18.0225 50.1664 18.6663V37.3326C50.1664 37.9767 49.6436 38.4992 48.9998 38.4992ZM22.1668 36.1661H47.833V19.8329H22.1668V36.1661Z" fill="#34A1D4"/>
<path d="M31.5001 33.8327H26.8335C26.1895 33.8327 25.667 33.3099 25.667 32.6661V23.3328C25.667 22.6888 26.1897 22.1663 26.8335 22.1663H31.5001C32.1441 22.1663 32.6666 22.689 32.6666 23.3328V32.6659C32.6666 33.3102 32.1441 33.8327 31.5001 33.8327ZM28.0001 31.4993H30.3335V24.4996H28.0001V31.4993Z" fill="#34A1D4"/>
<path d="M43.1665 33.8327H38.4999C37.8559 33.8327 37.3334 33.3099 37.3334 32.6661V23.3328C37.3334 22.6888 37.8561 22.1663 38.4999 22.1663H43.1665C43.8105 22.1663 44.333 22.689 44.333 23.3328V32.6659C44.333 33.3102 43.8105 33.8327 43.1665 33.8327ZM39.6665 31.4993H41.9999V24.4996H39.6665V31.4993Z" fill="#34A1D4"/>
<path d="M21.0002 31.4993H1.1673C0.523253 31.4993 0.000732422 30.9765 0.000732422 30.3327V25.6662C0.000732422 25.0222 0.523499 24.4996 1.1673 24.4996H21.0002C21.6442 24.4996 22.1668 25.0224 22.1668 25.6662V30.3327C22.1668 30.9768 21.6442 31.4993 21.0002 31.4993ZM2.33387 29.1662H19.8336V26.8328H2.33387V29.1662Z" fill="#34A1D4"/>
<path d="M68.8327 31.4993H48.9998C48.3557 31.4993 47.8332 30.9765 47.8332 30.3327V25.6662C47.8332 25.0222 48.356 24.4996 48.9998 24.4996H68.8327C69.4767 24.4996 69.9992 25.0224 69.9992 25.6662V30.3327C69.9992 30.9768 69.4767 31.4993 68.8327 31.4993ZM50.1663 29.1662H67.6661V26.8328H50.1663V29.1662Z" fill="#34A1D4"/>
<path d="M26.8335 29.1661H21.0002C20.3561 29.1661 19.8336 28.6434 19.8336 27.9996C19.8336 27.3555 20.3564 26.833 21.0002 26.833H26.8335C27.4776 26.833 28.0001 27.3558 28.0001 27.9996C28.0001 28.6434 27.4773 29.1661 26.8335 29.1661Z" fill="#34A1D4"/>
<path d="M38.5 29.1661H31.5001C30.856 29.1661 30.3335 28.6434 30.3335 27.9996C30.3335 27.3555 30.8563 26.833 31.5001 26.833H38.5C39.144 26.833 39.6665 27.3558 39.6665 27.9996C39.6665 28.6434 39.1438 29.1661 38.5 29.1661Z" fill="#34A1D4"/>
<path d="M48.9998 29.1661H43.1665C42.5224 29.1661 41.9999 28.6434 41.9999 27.9996C41.9999 27.3555 42.5227 26.833 43.1665 26.833H48.9998C49.6438 26.833 50.1664 27.3558 50.1664 27.9996C50.1664 28.6434 49.6436 29.1661 48.9998 29.1661Z" fill="#34A1D4"/>
<path d="M51.4963 70C51.2862 70 51.0739 69.9744 50.8616 69.923C49.9538 69.6989 49.233 69.0015 48.9821 68.1043C46.6256 59.709 41.0292 45.4994 34.9998 45.4994C28.9704 45.4994 23.3742 59.709 21.0187 68.1043C20.7667 69.0015 20.0469 69.6979 19.1392 69.923C18.227 70.1459 17.297 69.8775 16.6542 69.1985C11.2025 63.4459 11.647 51.7757 11.6691 51.2823C11.6669 47.3459 12.7612 42.6644 13.6793 39.4385C14.3885 36.9454 13.9208 34.2726 12.3958 32.1072C12.1648 31.7793 11.9432 31.4516 11.7309 31.1237C11.7193 31.105 11.6586 31.0046 11.648 30.9859C11.4416 30.6255 11.4216 30.1436 11.6305 29.7841C11.8394 29.4247 12.201 29.1659 12.6163 29.1659H19.8331V26.8325H10.2472C9.76897 26.8325 9.33845 26.5408 9.16231 26.0953C7.72858 22.4728 7.0004 18.6147 7.0004 14.6306V11.6662C7.0004 2.43818 16.9216 0 22.1668 0C28.8132 0 33.2546 2.90141 34.9998 4.29086C36.7452 2.90141 41.1866 0 47.833 0C53.0781 0 62.9994 2.43818 62.9994 11.6664V14.6308C62.9994 18.6149 62.2714 22.473 60.8365 26.0955C60.6616 26.5413 60.231 26.8328 59.7526 26.8328H50.1661V29.1662H57.383C57.8088 29.1662 58.202 29.3984 58.4062 29.7728C58.6116 30.1463 58.5951 30.6024 58.3665 30.9615L58.2696 31.1224C58.0573 31.4513 57.8344 31.7793 57.6034 32.1082C56.0774 34.2735 55.6095 36.9462 56.32 39.4394C57.2381 42.6641 58.3324 47.3459 58.3324 51.3322C58.3533 51.7755 58.7978 63.4454 53.346 69.1983C52.853 69.7198 52.1905 70 51.4963 70ZM35 43.166C43.7276 43.166 49.6274 61.7715 51.2281 67.4742C51.2631 67.6002 51.3647 67.6435 51.4205 67.6575C51.5138 67.6809 51.5908 67.6587 51.6515 67.5945C56.4312 62.5524 56.0044 51.496 55.9997 51.3841C55.9985 47.617 54.952 43.1615 54.0747 40.0781C53.2511 37.1813 53.6698 34.1013 55.2179 31.4998H48.9998C48.3558 31.4998 47.8332 30.977 47.8332 30.3332V25.6667C47.8332 25.0227 48.356 24.5001 48.9998 24.5001H58.9479C60.0888 21.3665 60.6662 18.0511 60.6662 14.6316V11.6672C60.6662 2.46573 48.3558 2.3351 47.832 2.33387C40.2872 2.33387 35.8669 6.61785 35.8227 6.6609C35.3666 7.11233 34.628 7.11233 34.1754 6.65869C34.1333 6.61785 29.7131 2.33387 22.167 2.33387C21.6442 2.3351 9.33403 2.46573 9.33403 11.6672V14.6316C9.33403 18.0511 9.9114 21.3665 11.0524 24.5001H21.0004C21.6445 24.5001 22.167 25.0229 22.167 25.6667V30.3327C22.167 30.9768 21.6442 31.4993 21.0004 31.4993H14.7809C16.329 34.1008 16.7489 37.1809 15.9241 40.0776C15.0468 43.1611 14.0003 47.6153 14.0003 51.3322C13.9944 51.4943 13.5779 62.5612 18.3473 67.5928C18.409 67.6582 18.4872 67.6779 18.5795 67.657C18.6366 67.643 18.7369 67.6009 18.7719 67.4737C20.3726 61.7715 26.2724 43.166 35 43.166Z" fill="#34A1D4"/>
</g>
<defs>
<clipPath id="clip0">
<rect width="70" height="70" fill="white"/>
</clipPath>
</defs>
</svg>
