<svg width="70" height="70" viewBox="0 0 70 70" fill="none" xmlns="http://www.w3.org/2000/svg">
<g clip-path="url(#clip0)">
<path d="M68.8331 45.4999H1.16658C0.522526 45.4999 -3.8147e-06 44.9771 -3.8147e-06 44.3333V5.8344C-3.8147e-06 3.26086 2.09405 1.16656 4.66783 1.16656H65.3322C67.9059 1.16656 70 3.26062 70 5.8344V44.3333C70 44.9774 69.4772 45.4999 68.8331 45.4999ZM2.33342 43.1667H67.6668V5.8344C67.6668 4.54628 66.619 3.49999 65.3324 3.49999H4.66783C3.38094 3.49999 2.33342 4.54652 2.33342 5.8344V43.1667Z" fill="#34A1D3"/>
<path d="M65.3322 54.8333H4.66783C2.09405 54.8333 -3.8147e-06 52.739 -3.8147e-06 50.1655V44.3333C-3.8147e-06 43.6892 0.522772 43.1667 1.16658 43.1667H68.8331C69.4772 43.1667 69.9997 43.6895 69.9997 44.3333V50.1655C70 52.739 67.9057 54.8333 65.3322 54.8333ZM2.33342 45.4999V50.1655C2.33342 51.4536 3.38118 52.4999 4.66783 52.4999H65.3322C66.619 52.4999 67.6666 51.4534 67.6666 50.1655V45.4999H2.33342Z" fill="#34A1D3"/>
<path d="M38.4999 50.1665H31.4999C30.8558 50.1665 30.3333 49.6437 30.3333 48.9999C30.3333 48.3561 30.8561 47.8333 31.4999 47.8333H38.4999C39.144 47.8333 39.6665 48.3561 39.6665 48.9999C39.6665 49.6437 39.144 50.1665 38.4999 50.1665Z" fill="#34A1D3"/>
<path d="M64.1666 45.4999H5.83344C5.18938 45.4999 4.66685 44.9771 4.66685 44.3333V7.00002C4.66685 6.35596 5.18962 5.83344 5.83344 5.83344H64.1668C64.8109 5.83344 65.3334 6.35621 65.3334 7.00002V44.3333C65.3334 44.9774 64.8106 45.4999 64.1666 45.4999ZM7.00003 43.1667H63V8.16661H7.00003V43.1667Z" fill="#34A1D3"/>
<path d="M50.1665 68.8331H19.8332C17.9035 68.8331 16.3332 67.2629 16.3332 65.3331C16.3332 63.4034 17.9035 61.8331 19.8332 61.8331H50.1665C52.0962 61.8331 53.6665 63.4034 53.6665 65.3331C53.6665 67.2629 52.0962 68.8331 50.1665 68.8331ZM19.8332 64.1666C19.1892 64.1666 18.6666 64.6903 18.6666 65.3331C18.6666 65.976 19.1894 66.4997 19.8332 66.4997H50.1665C50.8106 66.4997 51.3331 65.976 51.3331 65.3331C51.3331 64.6903 50.8103 64.1666 50.1665 64.1666H19.8332Z" fill="#34A1D3"/>
<path d="M47.8333 64.1666H22.1667C21.5226 64.1666 21.0001 63.6438 21.0001 63C21.0001 62.3559 21.5228 61.8334 22.1667 61.8334C26.0377 61.8334 28.0001 59.0859 28.0001 53.6668C28.0001 53.0227 28.5229 52.5002 29.1667 52.5002H40.8333C41.4774 52.5002 41.9999 53.023 41.9999 53.6668C41.9999 59.0859 43.9623 61.8334 47.8333 61.8334C48.4774 61.8334 48.9999 62.3562 48.9999 63C48.9999 63.644 48.4774 64.1666 47.8333 64.1666ZM27.8495 61.8334H42.1517C40.7142 60.2419 39.8685 57.8726 39.6994 54.8334H30.302C30.1315 57.8723 29.2858 60.2419 27.8495 61.8334Z" fill="#34A1D3"/>
<path d="M34.9999 45.4999H5.83344C5.18938 45.4999 4.66685 44.9771 4.66685 44.3333V7.00002C4.66685 6.35596 5.18962 5.83344 5.83344 5.83344H35.0001C35.6442 5.83344 36.1667 6.35621 36.1667 7.00002V44.3333C36.1667 44.9774 35.6439 45.4999 34.9999 45.4999ZM7.00002 43.1667H33.8333V8.16661H7.00002V43.1667Z" fill="#34A1D3"/>
<path d="M51.3333 40.8334H39.6667C39.0227 40.8334 38.5001 40.3106 38.5001 39.6668C38.5001 39.0227 39.0229 38.5002 39.6667 38.5002H51.3333C51.9774 38.5002 52.4999 39.023 52.4999 39.6668C52.4999 40.3106 51.9774 40.8334 51.3333 40.8334Z" fill="#34A1D3"/>
<path d="M59.5 40.8334H56C55.3559 40.8334 54.8334 40.3106 54.8334 39.6668C54.8334 39.0227 55.3561 38.5002 56 38.5002H59.5C60.144 38.5002 60.6665 39.023 60.6665 39.6668C60.6665 40.3106 60.144 40.8334 59.5 40.8334Z" fill="#34A1D3"/>
<path d="M59.5 36.1667H47.8333C47.1893 36.1667 46.6667 35.644 46.6667 35.0001C46.6667 34.3561 47.1895 33.8336 47.8333 33.8336H59.5C60.144 33.8336 60.6665 34.3563 60.6665 35.0001C60.6665 35.644 60.144 36.1667 59.5 36.1667Z" fill="#34A1D3"/>
<path d="M43.1667 36.1667H39.6667C39.0227 36.1667 38.5001 35.644 38.5001 35.0001C38.5001 34.3561 39.0229 33.8336 39.6667 33.8336H43.1667C43.8108 33.8336 44.3333 34.3563 44.3333 35.0001C44.3333 35.644 43.8105 36.1667 43.1667 36.1667Z" fill="#34A1D3"/>
<path d="M26.7319 38.4999C26.5988 38.4999 26.4647 38.4836 26.3316 38.4509C25.753 38.3063 25.2932 37.8629 25.1311 37.2912C23.982 33.2313 22.1679 30.0508 20.9998 30.0508C19.832 30.0508 18.0179 33.2313 16.8686 37.2912C16.7064 37.8629 16.2466 38.3063 15.668 38.4509C15.0906 38.5909 14.4781 38.416 14.0697 37.9889C11.9859 35.8095 12.1038 31.7075 12.1249 31.2479C12.1237 30.1244 12.3687 28.6719 12.8541 26.986C13.0362 26.3513 12.9149 25.6689 12.5193 25.1136C12.433 24.9923 12.35 24.871 12.2708 24.7495C11.1124 22.9809 10.4998 20.8692 10.4998 18.642V17.6201C10.4998 13.833 14.4478 12.8332 16.5362 12.8332C18.5847 12.8332 20.0992 13.8143 20.9998 14.6229C21.9005 13.8145 23.4149 12.8332 25.4635 12.8332C27.5519 12.8332 31.4999 13.833 31.4999 17.6211V18.643C31.4999 20.8702 30.8873 22.9819 29.7288 24.7505C29.6506 24.8706 29.5679 24.9921 29.4816 25.1134C29.086 25.6698 28.9647 26.3523 29.1468 26.9858C29.6309 28.6717 29.8759 30.1229 29.8759 31.2988C29.8946 31.7085 30.0137 35.8092 27.93 37.9884C27.6151 38.319 27.1787 38.4999 26.7319 38.4999ZM16.5364 15.1666C16.3883 15.1678 12.8335 15.2156 12.8335 17.6213V18.6433C12.8335 20.4155 13.3142 22.085 14.2229 23.472C14.2871 23.5699 14.3523 23.6668 14.4212 23.7637C15.2286 24.9001 15.4746 26.3105 15.0955 27.6301C14.6778 29.0872 14.4562 30.3554 14.4562 31.2993C14.4247 32.0762 14.5051 33.8707 15.0594 35.2368C16.0579 32.2315 18.0484 27.7189 21.0001 27.7189C23.9495 27.7189 25.9398 32.228 26.9383 35.2321C27.4948 33.852 27.5743 32.0379 27.5438 31.3495C27.5425 30.3544 27.3221 29.0862 26.9031 27.6291C26.524 26.3085 26.77 24.8991 27.5787 23.7615C27.6463 23.6658 27.7118 23.5701 27.7748 23.4735C28.686 22.084 29.1667 20.4145 29.1667 18.6423V17.6203C29.1667 15.2252 25.6399 15.1669 25.4625 15.1656C23.2936 15.1669 21.9706 16.9797 21.9578 16.9984C21.5214 17.625 20.4785 17.625 20.0421 16.9984C19.9931 16.9305 18.7075 15.1666 16.5364 15.1666Z" fill="#34A1D3"/>
<path d="M17.5001 19.8332C16.856 19.8332 16.3335 19.3105 16.3335 18.6666C16.3335 18.0226 16.8562 17.5001 17.5001 17.5001C18.1953 17.5001 19.4519 16.3987 20.0901 15.6031C20.4938 15.1014 21.2276 15.021 21.7305 15.4244C22.2321 15.8282 22.3126 16.562 21.9091 17.0649C21.5379 17.5269 19.5789 19.8332 17.5001 19.8332Z" fill="#34A1D3"/>
<path d="M59.5 17.5H39.6667C39.0227 17.5 38.5001 16.9772 38.5001 16.3334V11.6666C38.5001 11.0225 39.0229 10.5 39.6667 10.5H59.5C60.144 10.5 60.6666 11.0228 60.6666 11.6666V16.3332C60.6666 16.9772 60.144 17.5 59.5 17.5ZM40.8333 15.1666H58.3334V12.8332H40.8333V15.1666Z" fill="#34A1D3"/>
<path d="M46.6667 31.4998H39.6667C39.0227 31.4998 38.5001 30.9771 38.5001 30.3333V25.6667C38.5001 25.0226 39.0229 24.5001 39.6667 24.5001H46.6667C47.3108 24.5001 47.8333 25.0228 47.8333 25.6667V30.3333C47.8333 30.9773 47.3106 31.4998 46.6667 31.4998ZM40.8333 29.1667H45.4999V26.8332H40.8333V29.1667Z" fill="#34A1D3"/>
<path d="M59.5 31.4998H52.4999C51.8559 31.4998 51.3334 30.9771 51.3334 30.3333V25.6667C51.3334 25.0226 51.8561 24.5001 52.4999 24.5001H59.5C60.144 24.5001 60.6666 25.0228 60.6666 25.6667V30.3333C60.6666 30.9773 60.144 31.4998 59.5 31.4998ZM53.6665 29.1667H58.3331V26.8332H53.6665V29.1667Z" fill="#34A1D3"/>
<path d="M59.5 22.1667H39.6667C39.0227 22.1667 38.5001 21.6439 38.5001 21.0001C38.5001 20.356 39.0229 19.8335 39.6667 19.8335H59.5C60.144 19.8335 60.6666 20.3563 60.6666 21.0001C60.6666 21.6439 60.144 22.1667 59.5 22.1667Z" fill="#34A1D3"/>
</g>
<defs>
<clipPath id="clip0">
<rect width="70" height="70" fill="white"/>
</clipPath>
</defs>
</svg>
