<svg width="70" height="70" viewBox="0 0 70 70" fill="none" xmlns="http://www.w3.org/2000/svg">
<g clip-path="url(#clip0)">
<path d="M45.0797 70C44.8696 70 44.6573 69.9744 44.445 69.923C43.5372 69.6989 42.8164 69.0015 42.5655 68.1043C40.209 59.709 34.6125 45.4994 28.5831 45.4994C22.5537 45.4994 16.9575 59.709 14.602 68.1043C14.3501 69.0015 13.6303 69.6979 12.7225 69.923C11.8103 70.1459 10.8804 69.8775 10.2376 69.1985C4.7846 63.4459 5.22914 51.7757 5.25128 51.2813C5.25005 47.3461 6.34454 42.6644 7.26264 39.4387C7.97188 36.9457 7.50422 34.2728 5.97921 32.1074C5.74821 31.7795 5.52656 31.4518 5.31426 31.1239C2.21948 26.3568 0.584023 20.6531 0.584023 14.6308V11.6664C0.584023 2.43818 10.505 0 15.7504 0C22.3968 0 26.8382 2.90141 28.5834 4.29086C30.3288 2.90141 34.7702 0 41.4164 0C46.6615 0 56.5827 2.43818 56.5827 11.6664V14.6308C56.5827 20.6531 54.947 26.3568 51.852 31.1237C51.6397 31.4516 51.418 31.7793 51.187 32.1072C49.6611 34.2726 49.1932 36.9452 49.9036 39.4385C50.8217 42.6641 51.916 47.3459 51.916 51.3324C51.9369 51.7758 52.3814 63.4456 46.9296 69.1985C46.4366 69.7198 45.7739 70 45.0797 70ZM28.5834 43.166C37.311 43.166 43.2107 61.7715 44.8115 67.4742C44.8464 67.6002 44.948 67.6435 45.0039 67.6575C45.0971 67.6809 45.1741 67.6587 45.2349 67.5945C50.0146 62.5524 49.5877 51.496 49.5831 51.3841C49.5818 47.617 48.5353 43.1615 47.6581 40.0781C46.755 36.9036 47.3454 33.5087 49.2785 30.7647C49.4921 30.4614 49.6972 30.1581 49.8933 29.856C52.7433 25.466 54.2496 20.2019 54.2496 14.6313V11.6669C54.2496 2.46549 41.9404 2.33486 41.4154 2.33363C33.8706 2.33363 29.4503 6.61761 29.406 6.66066C28.9499 7.11208 28.2126 7.11208 27.7588 6.65844C27.7167 6.61761 23.2964 2.33363 15.7504 2.33363C15.2276 2.33486 2.9174 2.46549 2.9174 11.6669V14.6313C2.9174 20.2021 4.42346 25.466 7.27125 29.8538C7.46953 30.1583 7.67372 30.4616 7.88725 30.765C9.82038 33.5102 10.4108 36.9039 9.5077 40.0783C8.63044 43.1618 7.58392 47.616 7.58392 51.3329C7.57802 51.4951 7.16153 62.562 11.9309 67.5936C11.9926 67.659 12.0709 67.6787 12.1631 67.6578C12.2202 67.6437 12.3206 67.6017 12.3555 67.4745C13.956 61.7715 19.8558 43.166 28.5834 43.166Z" fill="#34A2D5"/>
<path d="M18.0835 13.9998C17.4395 13.9998 16.917 13.477 16.917 12.8332C16.917 12.1892 17.4397 11.6667 18.0835 11.6667C21.4563 11.6667 26.159 6.916 27.6874 5.08571C28.1005 4.59099 28.8353 4.52456 29.33 4.93761C29.8247 5.35066 29.8911 6.0845 29.4793 6.5802C28.8471 7.33938 23.1503 13.9998 18.0835 13.9998Z" fill="#34A2D5"/>
<path d="M33.2499 38.9824L28.1002 33.8327L33.2499 28.683L38.3996 33.8327L33.2499 38.9824ZM31.3997 33.8327L33.2499 35.6829L35.1001 33.8327L33.2499 31.9825L31.3997 33.8327Z" fill="#34A2D5"/>
<path d="M33.2499 31.4994C32.6058 31.4994 32.0833 30.9766 32.0833 30.3328V27.9994C32.0833 27.3553 32.6061 26.8328 33.2499 26.8328C33.8939 26.8328 34.4165 27.3556 34.4165 27.9994V30.3328C34.4167 30.9768 33.8939 31.4994 33.2499 31.4994Z" fill="#34A2D5"/>
<path d="M39.0832 34.9993H36.7499C36.1058 34.9993 35.5833 34.4765 35.5833 33.8327C35.5833 33.1887 36.1061 32.6661 36.7499 32.6661H39.0832C39.7273 32.6661 40.2498 33.1889 40.2498 33.8327C40.2498 34.4768 39.7273 34.9993 39.0832 34.9993Z" fill="#34A2D5"/>
<path d="M33.2499 40.8326C32.6058 40.8326 32.0833 40.3098 32.0833 39.666V37.3326C32.0833 36.6886 32.6061 36.1661 33.2499 36.1661C33.8939 36.1661 34.4165 36.6888 34.4165 37.3326V39.666C34.4167 40.3098 33.8939 40.8326 33.2499 40.8326Z" fill="#34A2D5"/>
<path d="M29.7499 34.9993H27.4166C26.7725 34.9993 26.25 34.4765 26.25 33.8327C26.25 33.1887 26.7728 32.6661 27.4166 32.6661H29.7499C30.394 32.6661 30.9165 33.1889 30.9165 33.8327C30.9168 34.4768 30.394 34.9993 29.7499 34.9993Z" fill="#34A2D5"/>
<path d="M62.4161 50.6488L57.2664 45.4991L62.4161 40.3494L67.5658 45.4991L62.4161 50.6488ZM60.5659 45.4991L62.4161 47.3493L64.2663 45.4991L62.4161 43.6489L60.5659 45.4991Z" fill="#34A2D5"/>
<path d="M62.4161 43.166C61.772 43.166 61.2495 42.6432 61.2495 41.9994V39.666C61.2495 39.022 61.7723 38.4995 62.4161 38.4995C63.0599 38.4995 63.5826 39.0222 63.5826 39.666V41.9994C63.5826 42.6432 63.0601 43.166 62.4161 43.166Z" fill="#34A2D5"/>
<path d="M68.2494 46.6659H65.916C65.272 46.6659 64.7495 46.1431 64.7495 45.4993C64.7495 44.8553 65.2722 44.3328 65.916 44.3328H68.2494C68.8935 44.3328 69.416 44.8555 69.416 45.4993C69.416 46.1431 68.8932 46.6659 68.2494 46.6659Z" fill="#34A2D5"/>
<path d="M62.4161 52.499C61.772 52.499 61.2495 51.9763 61.2495 51.3325V48.9991C61.2495 48.355 61.7723 47.8325 62.4161 47.8325C63.0599 47.8325 63.5826 48.3553 63.5826 48.9991V51.3325C63.5826 51.9765 63.0601 52.499 62.4161 52.499Z" fill="#34A2D5"/>
<path d="M58.9161 46.6659H56.5827C55.9387 46.6659 55.4162 46.1431 55.4162 45.4993C55.4162 44.8553 55.9389 44.3328 56.5827 44.3328H58.9161C59.5602 44.3328 60.0827 44.8555 60.0827 45.4993C60.0827 46.1431 59.5602 46.6659 58.9161 46.6659Z" fill="#34A2D5"/>
<path d="M42.5832 27.9996C41.9391 27.9996 41.4166 27.4768 41.4166 26.833C41.4166 21.687 38.2761 17.4997 34.4167 17.4997C33.7727 17.4997 33.2501 16.977 33.2501 16.3332C33.2501 15.6891 33.7729 15.1666 34.4167 15.1666C38.2761 15.1666 41.4166 10.9795 41.4166 5.83356C41.4166 5.18951 41.9394 4.66699 42.5832 4.66699C43.227 4.66699 43.7498 5.18976 43.7498 5.83356C43.7498 10.9795 46.8903 15.1666 50.7497 15.1666C51.3937 15.1666 51.9162 15.6894 51.9162 16.3332C51.9162 16.9772 51.3935 17.4997 50.7497 17.4997C46.8903 17.4997 43.7498 21.6868 43.7498 26.833C43.7498 27.4768 43.2272 27.9996 42.5832 27.9996ZM38.4835 16.3329C40.2159 17.3853 41.652 19.0897 42.5829 21.1886C43.5151 19.0899 44.95 17.3853 46.6824 16.3329C44.95 15.2805 43.5138 13.5762 42.5829 11.4772C41.6511 13.5762 40.2161 15.2807 38.4835 16.3329Z" fill="#34A2D5"/>
</g>
<defs>
<clipPath id="clip0">
<rect width="70" height="70" fill="white"/>
</clipPath>
</defs>
</svg>
