<svg width="43" height="79" viewBox="0 0 43 79" fill="none" xmlns="http://www.w3.org/2000/svg">
<path d="M39.3482 4.32794C38.1979 2.97833 36.8007 1.92126 35.2517 1.22869C33.7026 0.536111 32.038 0.22429 30.3713 0.31445C27.6286 0.379408 24.9692 1.37907 22.7498 3.17937C22.2557 3.5017 21.6937 3.67157 21.1215 3.67157C20.5492 3.67157 19.9872 3.5017 19.4931 3.17937C17.2711 1.37705 14.6082 0.377293 11.8623 0.31445C10.1948 0.223531 8.52936 0.534981 6.97943 1.22758C5.4295 1.92018 4.03152 2.97765 2.88073 4.32794C0.591017 7.19285 -0.361961 11.2532 0.123277 16.0858C0.384559 18.6773 1.64898 22.1308 3.87687 26.3591H2.45382C2.25497 26.359 2.0594 26.4157 1.88568 26.5237C1.71196 26.6317 1.56586 26.7876 1.46126 26.9764C1.35666 27.1652 1.29703 27.3807 1.28803 27.6025C1.27903 27.8242 1.32097 28.0449 1.40986 28.2435L6.0756 38.6614C6.17249 38.8778 6.3215 39.0599 6.5059 39.1871C6.6903 39.3143 6.9028 39.3816 7.11956 39.3815H11.86L12.0163 41.986H9.45244C9.17234 41.9859 8.90158 42.0983 8.68962 42.3028C8.47767 42.5072 8.33868 42.7899 8.29806 43.0993C8.25744 43.4087 8.3179 43.7241 8.46839 43.9878C8.61887 44.2516 8.84934 44.4461 9.11767 44.5357L12.2297 45.5775L12.4852 49.7994H9.45244C9.17234 49.7993 8.90158 49.9117 8.68962 50.1162C8.47767 50.3206 8.33868 50.6033 8.29806 50.9127C8.25744 51.2221 8.3179 51.5375 8.46839 51.8013C8.61887 52.065 8.84934 52.2595 9.11767 52.3491L12.7068 53.5511L12.9517 57.6128H9.45244C9.17234 57.6127 8.90158 57.7251 8.68962 57.9296C8.47767 58.134 8.33868 58.4167 8.29806 58.7261C8.25744 59.0355 8.3179 59.3509 8.46839 59.6147C8.61887 59.8784 8.84934 60.0729 9.11767 60.1625L13.185 61.5195L13.4183 65.4262H9.45244C9.17234 65.4261 8.90158 65.5386 8.68962 65.743C8.47767 65.9474 8.33868 66.2302 8.29806 66.5396C8.25744 66.8489 8.3179 67.1643 8.46839 67.4281C8.61887 67.6918 8.84934 67.8863 9.11767 67.976L13.6586 69.497L14.1252 77.2322C14.1447 77.5611 14.2752 77.8696 14.4903 78.0953C14.7055 78.321 14.9894 78.4473 15.2846 78.4485H26.949C27.2455 78.4492 27.531 78.3239 27.7477 78.098C27.9644 77.8721 28.0959 77.5625 28.1154 77.2322L28.1959 75.844H32.7812C33.0613 75.8441 33.332 75.7317 33.544 75.5272C33.7559 75.3228 33.8949 75.0401 33.9355 74.7307C33.9762 74.4213 33.9157 74.1059 33.7652 73.8422C33.6147 73.5784 33.3843 73.3839 33.1159 73.2943L28.442 71.7316L28.6625 68.0306H32.7812C33.0613 68.0307 33.332 67.9183 33.544 67.7138C33.7559 67.5094 33.8949 67.2267 33.9355 66.9173C33.9762 66.6079 33.9157 66.2925 33.7652 66.0288C33.6147 65.765 33.3843 65.5705 33.1159 65.4809L28.8993 64.0679L29.1326 60.2172H32.7812C33.0613 60.2173 33.332 60.1049 33.544 59.9004C33.7559 59.696 33.8949 59.4133 33.9355 59.1039C33.9762 58.7945 33.9157 58.4791 33.7652 58.2153C33.6147 57.9516 33.3843 57.7571 33.1159 57.6675L29.3565 56.4082L29.5898 52.4038H32.7812C33.0613 52.4039 33.332 52.2914 33.544 52.087C33.7559 51.8826 33.8949 51.5998 33.9355 51.2905C33.9762 50.9811 33.9157 50.6657 33.7652 50.4019C33.6147 50.1382 33.3843 49.9437 33.1159 49.8541L29.8138 48.7485L30.3736 39.3815H35.114C35.3318 39.3828 35.5455 39.3161 35.7311 39.1888C35.9166 39.0615 36.0665 38.8788 36.1638 38.6614L40.8296 28.2435C40.9187 28.0444 40.9606 27.8231 40.9514 27.6008C40.9421 27.3785 40.8819 27.1626 40.7767 26.9736C40.6714 26.7846 40.5245 26.6289 40.3499 26.5213C40.1754 26.4138 39.9791 26.3579 39.7798 26.3591H38.3521C40.58 22.1308 41.8444 18.676 42.1057 16.0858C42.5909 11.2532 41.6379 7.18764 39.3482 4.32794ZM25.8572 75.844H16.3764L16.0451 70.2965L25.9902 73.6302L25.8572 75.844ZM26.1488 70.9607L15.8842 67.5215L15.5739 62.3229L26.4521 65.9692L26.1488 70.9607ZM26.6061 63.3009L15.4083 59.5479L15.0922 54.3572L26.9047 58.3134L26.6061 63.3009ZM27.0645 55.6399L14.9265 51.5756L14.6163 46.3771L27.3619 50.6458L27.0645 55.6399ZM27.5217 47.9801L14.4506 43.6033L14.1987 39.3815H28.0349L27.5217 47.9801ZM36.7261 31.5681H29.2819V34.1725H35.5596L34.3932 36.777H7.84042L6.67399 34.1725H15.2846V31.5681H5.50755L4.34111 28.9636H37.8925L36.7261 31.5681ZM39.7868 15.7967C39.6142 17.5105 38.7498 20.727 35.6284 26.3591H6.60517C3.48378 20.727 2.61945 17.5105 2.44682 15.7967C2.0374 11.7207 2.78975 8.35445 4.62456 6.06382C5.55912 4.99191 6.68889 4.15645 7.93753 3.61391C9.18616 3.07136 10.5246 2.83436 11.8623 2.91892C14.0875 2.98406 16.2441 3.79238 18.0537 5.2395C20.6412 7.61876 23.8862 8.92544 27.2383 8.93785C28.8505 8.93101 30.4514 8.63556 31.9798 8.06274L31.2496 5.5885C28.7592 6.5457 26.058 6.5754 23.5512 5.67314C23.7608 5.55585 23.961 5.41861 24.1495 5.26294C25.9649 3.8004 28.1334 2.98345 30.3713 2.91892C31.709 2.83436 33.0474 3.07136 34.2961 3.61391C35.5447 4.15645 36.6745 4.99191 37.6091 6.06382C39.4439 8.35445 40.1962 11.7207 39.7868 15.7967Z" fill="#34A1D3"/>
</svg>
