<svg width="35" height="35" viewBox="0 0 35 35" fill="none" xmlns="http://www.w3.org/2000/svg">
<g clip-path="url(#clip0)">
<path d="M4.70093 25.083C4.55222 25.083 4.40289 25.0258 4.28911 24.9126C1.52302 22.1559 0 18.4875 0 14.5833C0 6.54228 6.54191 0.000366211 14.583 0.000366211C18.469 0.000366211 22.1247 1.51121 24.8769 4.25393C25.1049 4.48149 25.1055 4.85013 24.878 5.07879C24.6504 5.30684 24.2813 5.30684 24.0531 5.0799C21.5215 2.5571 18.1581 1.16705 14.583 1.16705C7.18534 1.16693 1.16668 7.18509 1.16668 14.5833C1.16668 18.1754 2.56842 21.5505 5.11286 24.0868C5.34091 24.3144 5.34153 24.683 5.11397 24.9117C5.00019 25.0258 4.85087 25.083 4.70093 25.083V25.083Z" fill="#38ACE1"/>
<path d="M9.76238 34.9995C9.75599 34.9995 9.74898 34.9995 9.74258 34.9995C7.90221 34.9919 6.41006 33.4899 6.41769 31.6512V27.533C6.3798 25.8437 7.61352 24.3919 9.29055 24.1556C10.5738 23.9869 11.8338 23.6738 13.0419 23.2235C14.2569 22.7678 15.6395 23.0624 16.564 23.9741L17.9995 25.4068C21.0596 23.5856 23.6204 21.0301 25.445 17.977L24.013 16.5478C23.0966 15.6227 22.8014 14.2414 23.2588 13.0264C23.7091 11.8231 24.0229 10.5647 24.1909 9.29017C24.4253 7.63357 25.8615 6.39346 27.5321 6.4167H31.6621C31.7618 6.4167 31.861 6.42138 31.9601 6.43011C32.8479 6.51055 33.6523 6.93061 34.224 7.61426C34.7956 8.29852 35.0663 9.1636 34.9863 10.0513C34.5256 14.383 33.0311 18.5957 30.6628 22.2445C28.518 25.6132 25.5956 28.5292 22.2152 30.6734C18.5811 33.0253 14.3795 34.5168 10.0694 34.9841C9.96128 34.995 9.86165 34.9995 9.76238 34.9995V34.9995ZM14.2125 24.1784C13.9558 24.1784 13.6975 24.2233 13.4501 24.3167C12.1587 24.7974 10.8123 25.1322 9.44737 25.3113C8.35954 25.4647 7.5562 26.4108 7.58363 27.5116V27.5256V31.6526C7.57896 32.8508 8.54958 33.8272 9.74836 33.8318C9.81663 33.8301 9.88428 33.8295 9.95132 33.8225C14.0719 33.3756 18.0979 31.9466 21.5844 29.6902C24.8253 27.6352 27.6235 24.8423 29.6798 21.6124C31.9513 18.113 33.3833 14.0765 33.8236 9.93606C33.8749 9.36853 33.6988 8.80554 33.3272 8.36175C32.9556 7.91672 32.4318 7.64304 31.8537 7.59114C31.7901 7.58708 31.7254 7.58351 31.6612 7.58351H27.5261C26.4493 7.57478 25.499 8.37454 25.3469 9.44836C25.1678 10.8046 24.8323 12.1485 24.3505 13.4365C24.053 14.2269 24.2444 15.1246 24.8387 15.7242L26.587 17.4689C26.7731 17.6544 26.8122 17.9426 26.6821 18.1706C24.669 21.705 21.7332 24.6344 18.1924 26.6439C17.9643 26.7722 17.6779 26.7349 17.4924 26.5495L15.7418 24.8024C15.3296 24.396 14.7761 24.1784 14.2125 24.1784V24.1784Z" fill="#38ACE1"/>
<path d="M9.4754 22.166C9.22521 22.166 8.9813 22.0633 8.80639 21.8773C7.41695 20.3975 7.52777 17.4587 7.53306 17.3344C7.53245 16.3632 7.80022 15.2042 8.02544 14.4067C8.17071 13.8917 8.0744 13.3393 7.76123 12.8901C7.70404 12.8078 7.64979 12.7261 7.59727 12.6451C6.82432 11.4441 6.41669 10.0113 6.41669 8.50001V7.78425C6.41669 5.31854 8.98794 4.66699 10.3476 4.66699C11.8094 4.66699 12.857 5.38275 13.4164 5.89075C13.9758 5.38262 15.0234 4.66699 16.4852 4.66699C17.8449 4.66699 20.4161 5.31854 20.4161 7.78487V8.50062C20.4161 10.012 20.0084 11.4446 19.2373 12.6445C19.1841 12.7272 19.1294 12.8084 19.0722 12.8906C18.7584 13.3403 18.6621 13.8927 18.8074 14.4078C19.032 15.2046 19.2998 16.3643 19.2998 17.3606C19.3044 17.4598 19.4153 20.3986 18.0258 21.8784C17.7995 22.1188 17.4588 22.2213 17.1374 22.1403C16.813 22.0603 16.5552 21.8113 16.466 21.4894C15.7428 18.8877 14.4629 16.2541 13.4158 16.2541C12.3687 16.2541 11.089 18.8878 10.3656 21.4889C10.2758 21.8114 10.0185 22.0605 9.69422 22.1404C9.62239 22.1573 9.54834 22.166 9.4754 22.166V22.166ZM13.4163 15.0862C15.4813 15.0862 16.8543 18.7063 17.4546 20.7058C18.074 19.6821 18.1604 18.0121 18.1342 17.3839C18.1336 16.4967 17.8898 15.4502 17.685 14.7233C17.4446 13.8706 17.6016 12.9594 18.1155 12.2227C18.1645 12.1527 18.2117 12.0815 18.2572 12.0115C18.9058 11.0018 19.2495 9.78674 19.2495 8.49988V7.78413C19.2495 5.86799 16.5983 5.83355 16.484 5.83294C14.8612 5.83355 13.9204 7.03578 13.8812 7.08707C13.771 7.23111 13.599 7.31684 13.4175 7.31684C13.4164 7.31684 13.4158 7.31684 13.4146 7.31684C13.232 7.31574 13.06 7.23111 12.9502 7.08523C12.9123 7.03627 11.9709 5.83343 10.3475 5.83343C10.2361 5.83404 7.58312 5.86787 7.58312 7.78462V8.50038C7.58312 9.78723 7.92667 11.0023 8.5765 12.0125C8.62078 12.0814 8.66813 12.1518 8.7177 12.2231C9.23099 12.9592 9.38795 13.8703 9.1476 14.7232C8.9428 15.4494 8.69901 16.4959 8.69901 17.3593C8.67281 18.0091 8.75854 19.6815 9.37798 20.7058C9.97824 18.7063 11.3513 15.0862 13.4163 15.0862V15.0862Z" fill="#38ACE1"/>
<path d="M11.0831 8.7502C10.761 8.7502 10.4998 8.48943 10.4998 8.16692C10.4998 7.84428 10.7612 7.58363 11.0831 7.58363C11.681 7.58363 12.5612 6.82876 12.976 6.35286C13.1876 6.11079 13.5558 6.08398 13.7985 6.29567C14.0418 6.50625 14.0674 6.87427 13.8568 7.11757C13.7121 7.28437 12.4037 8.7502 11.0831 8.7502Z" fill="#38ACE1"/>
</g>
<defs>
<clipPath id="clip0">
<rect width="35" height="35" fill="white"/>
</clipPath>
</defs>
</svg>
