<svg width="30" height="30" viewBox="0 0 30 30" fill="none" xmlns="http://www.w3.org/2000/svg">
<path d="M15 30C23.2843 30 30 23.2843 30 15C30 6.71573 23.2843 0 15 0C6.71573 0 0 6.71573 0 15C0 23.2843 6.71573 30 15 30Z" fill="white"/>
<path fill-rule="evenodd" clip-rule="evenodd" d="M14.4334 21.5788H15.6107C15.6107 21.5788 15.9663 21.5398 16.1479 21.3441C16.315 21.1644 16.3096 20.8269 16.3096 20.8269C16.3096 20.8269 16.2867 19.2472 17.0198 19.0146C17.7426 18.7854 18.6707 20.5414 19.6544 21.2165C20.3983 21.7275 20.9636 21.6155 20.9636 21.6155L23.5939 21.5788C23.5939 21.5788 24.9699 21.4941 24.3174 20.4122C24.2639 20.3237 23.9375 19.6119 22.3617 18.1493C20.7125 16.6185 20.9333 16.8661 22.92 14.2182C24.13 12.6055 24.6137 11.621 24.4626 11.1993C24.3185 10.7977 23.4286 10.9039 23.4286 10.9039L20.467 10.9223C20.467 10.9223 20.2475 10.8924 20.0846 10.9897C19.9256 11.0852 19.8231 11.3076 19.8231 11.3076C19.8231 11.3076 19.3544 12.5555 18.7293 13.6168C17.4105 15.8562 16.8832 15.9744 16.6677 15.8353C16.1663 15.5112 16.2915 14.5334 16.2915 13.8387C16.2915 11.6686 16.6206 10.7638 15.6505 10.5295C15.3286 10.4517 15.0917 10.4004 14.2684 10.3921C13.2117 10.3811 12.3173 10.3953 11.8108 10.6434C11.4739 10.8084 11.214 11.1761 11.3723 11.1972C11.568 11.2234 12.0114 11.3167 12.2464 11.6368C12.5499 12.0496 12.5392 12.9769 12.5392 12.9769C12.5392 12.9769 12.7135 15.5316 12.132 15.849C11.7327 16.0666 11.1851 15.6222 10.0094 13.5906C9.407 12.5499 8.95217 11.3996 8.95217 11.3996C8.95217 11.3996 8.86446 11.1846 8.70804 11.0696C8.51819 10.9303 8.25294 10.8859 8.25294 10.8859L5.43867 10.9044C5.43867 10.9044 5.0162 10.9162 4.86111 11.0999C4.72314 11.2632 4.85015 11.6012 4.85015 11.6012C4.85015 11.6012 7.05344 16.7559 9.54818 19.3536C11.8357 21.7353 14.4334 21.5788 14.4334 21.5788Z" fill="#38ACE1"/>
</svg>
